<svg width="6" height="8" viewBox="0 0 6 8" fill="none" xmlns="http://www.w3.org/2000/svg">
<path d="M1.42918 0.500121C1.32572 0.497845 1.22412 0.527836 1.13851 0.585971C1.0529 0.644105 0.987527 0.727509 0.951485 0.824513C0.915443 0.921517 0.910521 1.02733 0.937402 1.12726C0.964283 1.22719 1.02163 1.31622 1.10148 1.38205L4.14799 3.99195L1.10148 6.60093C1.04624 6.64153 0.999989 6.69306 0.965607 6.75236C0.931224 6.81166 0.909456 6.87744 0.901664 6.94554C0.893873 7.01364 0.900227 7.0826 0.920328 7.14813C0.940429 7.21366 0.973844 7.27436 1.01848 7.32638C1.06312 7.3784 1.11801 7.4206 1.17973 7.45042C1.24145 7.48024 1.30866 7.49699 1.37716 7.49963C1.44565 7.50227 1.51395 7.49078 1.57779 7.46581C1.64162 7.44083 1.69961 7.40294 1.74812 7.35452L5.23611 4.37021C5.29088 4.32346 5.33487 4.26545 5.36503 4.20006C5.39519 4.13467 5.4108 4.0635 5.4108 3.99149C5.4108 3.91948 5.39519 3.84831 5.36503 3.78292C5.33487 3.71754 5.29088 3.65946 5.23611 3.61272L1.74812 0.625536C1.66001 0.547273 1.54699 0.502778 1.42918 0.500006V0.500121Z" fill="#D3D3D3"/>
</svg>
