<svg width="9" height="14" viewBox="0 0 9 14" fill="none" xmlns="http://www.w3.org/2000/svg">
<path d="M0.977191 0.554909C0.786704 0.55072 0.599644 0.605939 0.442018 0.712976C0.284391 0.820013 0.164031 0.973576 0.0976706 1.15218C0.0313103 1.33078 0.0222472 1.5256 0.071741 1.70959C0.121235 1.89358 0.226826 2.05751 0.373836 2.17871L5.98307 6.98404L0.373836 11.7877C0.272142 11.8624 0.186976 11.9573 0.123671 12.0665C0.0603664 12.1757 0.0202867 12.2968 0.00594151 12.4222C-0.00840371 12.5476 0.00329496 12.6745 0.0403048 12.7952C0.0773146 12.9158 0.138838 13.0276 0.221023 13.1234C0.303207 13.2192 0.404283 13.2968 0.517919 13.3518C0.631555 13.4067 0.755305 13.4375 0.881416 13.4424C1.00753 13.4472 1.13329 13.4261 1.25082 13.3801C1.36834 13.3341 1.47511 13.2643 1.56443 13.1752L7.98649 7.68049C8.08734 7.59443 8.16833 7.4876 8.22386 7.36721C8.27939 7.24682 8.30814 7.11578 8.30814 6.9832C8.30814 6.85062 8.27939 6.71958 8.22386 6.59919C8.16833 6.4788 8.08734 6.37187 7.98649 6.2858L1.56443 0.785824C1.4022 0.641726 1.19412 0.559803 0.977191 0.554698V0.554909Z" fill="#0D1935"/>
</svg>
