<svg width="12" height="8" viewBox="0 0 12 8" fill="none" xmlns="http://www.w3.org/2000/svg">
<path d="M6.46824 7.33114L11.8083 1.99099C11.9319 1.86747 12 1.7026 12 1.52679C12 1.35099 11.9319 1.18611 11.8083 1.0626L11.4151 0.669338C11.1589 0.413437 10.7425 0.413437 10.4867 0.669338L6.00249 5.1536L1.51326 0.664362C1.38965 0.54085 1.22487 0.472656 1.04916 0.472656C0.873261 0.472656 0.708483 0.54085 0.584776 0.664362L0.191707 1.05763C0.068098 1.18124 9.15499e-07 1.34602 9.07814e-07 1.52182C9.00129e-07 1.69762 0.068098 1.8625 0.191707 1.98601L5.53664 7.33114C5.66064 7.45494 5.8262 7.52294 6.0022 7.52255C6.17888 7.52294 6.34434 7.45494 6.46824 7.33114Z" fill="#FE6D2C"/>
</svg>
