<svg width="4" height="6" viewBox="0 0 4 6" fill="none" xmlns="http://www.w3.org/2000/svg">
<path d="M0.843623 0.656331C0.774355 0.654807 0.706334 0.674887 0.649015 0.713809C0.591696 0.752732 0.547929 0.808573 0.523798 0.87352C0.499667 0.938466 0.496371 1.00931 0.514369 1.07621C0.532367 1.14312 0.570764 1.20273 0.624221 1.2468L2.66394 2.9942L0.624221 4.74098C0.587242 4.76816 0.556273 4.80266 0.533253 4.84236C0.510233 4.88206 0.495658 4.9261 0.490442 4.9717C0.485225 5.01729 0.489479 5.06347 0.502938 5.10734C0.516396 5.15122 0.538768 5.19185 0.568653 5.22668C0.598538 5.26151 0.635293 5.28976 0.676615 5.30973C0.717938 5.32969 0.762937 5.34091 0.808796 5.34268C0.854655 5.34445 0.900385 5.33675 0.943123 5.32003C0.985861 5.30331 1.02469 5.27794 1.05717 5.24552L3.39246 3.24745C3.42913 3.21615 3.45858 3.17731 3.47877 3.13353C3.49897 3.08975 3.50942 3.0421 3.50942 2.99389C3.50942 2.94568 3.49897 2.89803 3.47877 2.85425C3.45858 2.81047 3.42913 2.77159 3.39246 2.74029L1.05717 0.7403C0.998173 0.6879 0.922506 0.65811 0.843623 0.656254V0.656331Z" fill="#969696"/>
</svg>
