<svg width="7" height="12" viewBox="0 0 7 12" fill="none" xmlns="http://www.w3.org/2000/svg">
<path d="M0.191324 5.53176L5.53148 0.191706C5.65499 0.068097 5.81986 0 5.99567 0C6.17147 0 6.33635 0.068097 6.45986 0.191706L6.85312 0.584873C7.10902 0.841066 7.10902 1.25745 6.85312 1.51326L2.36887 5.99751L6.8581 10.4867C6.98161 10.6104 7.0498 10.7751 7.0498 10.9508C7.0498 11.1267 6.98161 11.2915 6.8581 11.4152L6.46483 11.8083C6.34123 11.9319 6.17645 12 6.00064 12C5.82484 12 5.65996 11.9319 5.53645 11.8083L0.191324 6.46336C0.0675197 6.33936 -0.000479698 6.1738 -8.91685e-05 5.99781C-0.000479698 5.82112 0.0675197 5.65566 0.191324 5.53176Z" fill="black"/>
</svg>
