<svg width="22" height="22" viewBox="0 0 22 22" fill="none" xmlns="http://www.w3.org/2000/svg">
<g clip-path="url(#clip0_318_8235)">
<path d="M4.125 22C4.06633 22 4.00675 21.9881 3.94992 21.9652C3.7785 21.8946 3.66667 21.7268 3.66667 21.5417V17.4167H2.29167C1.0285 17.4167 0 16.3891 0 15.125V2.29167C0 1.02758 1.0285 0 2.29167 0H19.7083C20.9715 0 22 1.02758 22 2.29167V15.125C22 16.3891 20.9715 17.4167 19.7083 17.4167H8.89808L4.44858 21.8662C4.3615 21.9533 4.24417 22 4.125 22ZM2.29167 0.916667C1.53358 0.916667 0.916667 1.53358 0.916667 2.29167V15.125C0.916667 15.8831 1.53358 16.5 2.29167 16.5H4.125C4.378 16.5 4.58333 16.7053 4.58333 16.9583V20.4352L8.38383 16.6348C8.47 16.5486 8.58642 16.5 8.70833 16.5H19.7083C20.4664 16.5 21.0833 15.8831 21.0833 15.125V2.29167C21.0833 1.53358 20.4664 0.916667 19.7083 0.916667H2.29167Z" fill="#FE6D2C"/>
<path d="M11.9165 13.75H10.0832C9.64226 13.75 9.16651 13.4117 9.16651 12.6683V11.4583C9.16651 10.9212 8.9346 10.4298 8.54685 10.1438C7.47526 9.3555 6.85009 8.09325 6.87576 6.76866C6.91701 4.58608 8.74026 2.78208 10.9393 2.75C12.0375 2.7555 13.1118 3.15608 13.9057 3.93983C14.6913 4.71533 15.1249 5.74842 15.1249 6.85025C15.1249 8.13541 14.5061 9.36283 13.4693 10.1328C13.0706 10.4289 12.8332 10.9267 12.8332 11.4647V12.8333C12.8332 13.3393 12.4216 13.75 11.9165 13.75ZM10.9989 3.66667C10.9833 3.66667 10.9678 3.66667 10.9522 3.66667C9.27193 3.69142 7.82451 5.1205 7.79243 6.787C7.77226 7.81366 8.25718 8.79266 9.09043 9.40591C9.71193 9.86425 10.0832 10.6315 10.0832 11.4583V12.6683C10.0832 12.8049 10.1162 12.8498 10.1162 12.8498L11.9165 12.8333V11.4647C11.9165 10.6388 12.2923 9.86608 12.9221 9.39675C13.7398 8.78991 14.2082 7.86133 14.2082 6.85025C14.2082 5.99592 13.8718 5.19383 13.2613 4.5925C12.6553 3.99392 11.8533 3.66667 10.9989 3.66667Z" fill="#FE6D2C"/>
<path d="M12.3744 11.9167H9.62435C9.37135 11.9167 9.16602 11.7113 9.16602 11.4583C9.16602 11.2053 9.37135 11 9.62435 11H12.3744C12.6274 11 12.8327 11.2053 12.8327 11.4583C12.8327 11.7113 12.6274 11.9167 12.3744 11.9167Z" fill="#FE6D2C"/>
</g>
<defs>
<clipPath id="clip0_318_8235">
<rect width="22" height="22" fill="white"/>
</clipPath>
</defs>
</svg>
