<svg width="26" height="26" viewBox="0 0 26 26" fill="none" xmlns="http://www.w3.org/2000/svg">
<path d="M4.0838 25.7782H21.9159C23.7852 25.7782 25.3044 24.2591 25.3044 22.3897V5.50411C25.3044 3.63477 23.7852 2.11562 21.9159 2.11562H20.5719V1.16914C20.5719 0.648558 20.1459 0.222656 19.6253 0.222656C19.1047 0.222656 18.6788 0.648558 18.6788 1.16914V2.11562H7.32087V1.16914C7.32087 0.648558 6.89488 0.222656 6.3743 0.222656C5.85372 0.222656 5.42782 0.648558 5.42782 1.16914V2.11562H4.0838C2.21446 2.11562 0.695312 3.63477 0.695312 5.50411V22.3897C0.695312 24.2591 2.21446 25.7782 4.0838 25.7782ZM2.58836 5.50411C2.58836 4.68068 3.26037 4.00867 4.0838 4.00867H5.42782V4.95516C5.42782 5.47574 5.85372 5.90164 6.3743 5.90164C6.89488 5.90164 7.32079 5.47574 7.32079 4.95516V4.00867H18.6788V4.95516C18.6788 5.47574 19.1047 5.90164 19.6253 5.90164C20.1459 5.90164 20.5718 5.47574 20.5718 4.95516V4.00867H21.9158C22.7393 4.00867 23.4113 4.68068 23.4113 5.50411V8.26793H2.58836V5.50411ZM2.58836 10.1609H23.4114V22.3897C23.4114 23.2131 22.7394 23.8852 21.916 23.8852H4.0838C3.26037 23.8852 2.58836 23.2131 2.58836 22.3897V10.1609Z" fill="#E0E0E0"/>
</svg>
