<svg width="16" height="17" viewBox="0 0 16 17" fill="none" xmlns="http://www.w3.org/2000/svg">
<path d="M2.07412 16.4156H13.0407C14.1903 16.4156 15.1246 15.4814 15.1246 14.3317V3.94726C15.1246 2.79764 14.1903 1.86338 13.0407 1.86338H12.2141V1.2813C12.2141 0.961144 11.9522 0.699219 11.632 0.699219C11.3119 0.699219 11.0499 0.961144 11.0499 1.2813V1.86338H4.06488V1.2813C4.06488 0.961144 3.80291 0.699219 3.48276 0.699219C3.1626 0.699219 2.90068 0.961144 2.90068 1.2813V1.86338H2.07412C0.924496 1.86338 -0.00976562 2.79764 -0.00976562 3.94726V14.3317C-0.00976562 15.4814 0.924496 16.4156 2.07412 16.4156ZM1.15444 3.94726C1.15444 3.44086 1.56772 3.02758 2.07412 3.02758H2.90068V3.60966C2.90068 3.92981 3.1626 4.19174 3.48276 4.19174C3.80291 4.19174 4.06484 3.92981 4.06484 3.60966V3.02758H11.0499V3.60966C11.0499 3.92981 11.3119 4.19174 11.632 4.19174C11.9522 4.19174 12.2141 3.92981 12.2141 3.60966V3.02758H13.0406C13.547 3.02758 13.9603 3.44086 13.9603 3.94726V14.3317C13.9603 14.8382 13.547 15.2514 13.0406 15.2514H2.07412C1.56772 15.2514 1.15444 14.8382 1.15444 14.3317V3.94726Z" fill="#FE6D2C"/>
<path d="M4.21002 7.3927C4.61186 7.3927 4.93762 7.06694 4.93762 6.6651C4.93762 6.26326 4.61186 5.9375 4.21002 5.9375C3.80818 5.9375 3.48242 6.26326 3.48242 6.6651C3.48242 7.06694 3.80818 7.3927 4.21002 7.3927Z" fill="#FE6D2C"/>
<path d="M7.41119 7.3927C7.81304 7.3927 8.13879 7.06694 8.13879 6.6651C8.13879 6.26326 7.81304 5.9375 7.41119 5.9375C7.00935 5.9375 6.68359 6.26326 6.68359 6.6651C6.68359 7.06694 7.00935 7.3927 7.41119 7.3927Z" fill="#FE6D2C"/>
<path d="M10.6143 7.3927C11.0162 7.3927 11.3419 7.06694 11.3419 6.6651C11.3419 6.26326 11.0162 5.9375 10.6143 5.9375C10.2125 5.9375 9.88672 6.26326 9.88672 6.6651C9.88672 7.06694 10.2125 7.3927 10.6143 7.3927Z" fill="#FE6D2C"/>
<path d="M4.21002 10.3029C4.61186 10.3029 4.93762 9.9771 4.93762 9.57526C4.93762 9.17341 4.61186 8.84766 4.21002 8.84766C3.80818 8.84766 3.48242 9.17341 3.48242 9.57526C3.48242 9.9771 3.80818 10.3029 4.21002 10.3029Z" fill="#FE6D2C"/>
<path d="M7.41119 10.3029C7.81304 10.3029 8.13879 9.9771 8.13879 9.57526C8.13879 9.17341 7.81304 8.84766 7.41119 8.84766C7.00935 8.84766 6.68359 9.17341 6.68359 9.57526C6.68359 9.9771 7.00935 10.3029 7.41119 10.3029Z" fill="#FE6D2C"/>
<path d="M10.6143 10.3029C11.0162 10.3029 11.3419 9.9771 11.3419 9.57526C11.3419 9.17341 11.0162 8.84766 10.6143 8.84766C10.2125 8.84766 9.88672 9.17341 9.88672 9.57526C9.88672 9.9771 10.2125 10.3029 10.6143 10.3029Z" fill="#FE6D2C"/>
<path d="M4.21002 13.215C4.61186 13.215 4.93762 12.8892 4.93762 12.4874C4.93762 12.0855 4.61186 11.7598 4.21002 11.7598C3.80818 11.7598 3.48242 12.0855 3.48242 12.4874C3.48242 12.8892 3.80818 13.215 4.21002 13.215Z" fill="#FE6D2C"/>
<path d="M7.41119 13.215C7.81304 13.215 8.13879 12.8892 8.13879 12.4874C8.13879 12.0855 7.81304 11.7598 7.41119 11.7598C7.00935 11.7598 6.68359 12.0855 6.68359 12.4874C6.68359 12.8892 7.00935 13.215 7.41119 13.215Z" fill="#FE6D2C"/>
<path d="M10.6143 13.215C11.0162 13.215 11.3419 12.8892 11.3419 12.4874C11.3419 12.0855 11.0162 11.7598 10.6143 11.7598C10.2125 11.7598 9.88672 12.0855 9.88672 12.4874C9.88672 12.8892 10.2125 13.215 10.6143 13.215Z" fill="#FE6D2C"/>
</svg>
