<svg width="24" height="20" viewBox="0 0 24 20" fill="none" xmlns="http://www.w3.org/2000/svg">
<path d="M23.1888 6.23812C23.1132 6.14492 23.0179 6.06962 22.9097 6.01764C22.8015 5.96566 22.6832 5.93829 22.5632 5.9375H1.43817C1.31816 5.93829 1.19982 5.96566 1.09164 6.01764C0.98347 6.06962 0.888154 6.14492 0.812548 6.23812C0.733121 6.32951 0.67512 6.43748 0.642788 6.55416C0.610455 6.67084 0.604608 6.79327 0.625673 6.9125L2.81942 17.7919C2.93016 18.3439 3.2286 18.8406 3.66406 19.1976C4.09951 19.5545 4.64511 19.7497 5.20817 19.75H18.7932C19.3562 19.7497 19.9018 19.5545 20.3373 19.1976C20.7727 18.8406 21.0712 18.3439 21.1819 17.7919L23.3757 6.9125C23.3967 6.79327 23.3909 6.67084 23.3585 6.55416C23.3262 6.43748 23.2682 6.32951 23.1888 6.23812ZM8.75067 14.875C8.75067 15.0905 8.66507 15.2972 8.51269 15.4495C8.36032 15.6019 8.15366 15.6875 7.93817 15.6875C7.72268 15.6875 7.51602 15.6019 7.36365 15.4495C7.21127 15.2972 7.12567 15.0905 7.12567 14.875V10.8125C7.12567 10.597 7.21127 10.3903 7.36365 10.238C7.51602 10.0856 7.72268 10 7.93817 10C8.15366 10 8.36032 10.0856 8.51269 10.238C8.66507 10.3903 8.75067 10.597 8.75067 10.8125V14.875ZM12.8132 14.875C12.8132 15.0905 12.7276 15.2972 12.5752 15.4495C12.4228 15.6019 12.2162 15.6875 12.0007 15.6875C11.7852 15.6875 11.5785 15.6019 11.4261 15.4495C11.2738 15.2972 11.1882 15.0905 11.1882 14.875V10.8125C11.1882 10.597 11.2738 10.3903 11.4261 10.238C11.5785 10.0856 11.7852 10 12.0007 10C12.2162 10 12.4228 10.0856 12.5752 10.238C12.7276 10.3903 12.8132 10.597 12.8132 10.8125V14.875ZM16.8757 14.875C16.8757 15.0905 16.7901 15.2972 16.6377 15.4495C16.4853 15.6019 16.2787 15.6875 16.0632 15.6875C15.8477 15.6875 15.641 15.6019 15.4886 15.4495C15.3363 15.2972 15.2507 15.0905 15.2507 14.875V10.8125C15.2507 10.597 15.3363 10.3903 15.4886 10.238C15.641 10.0856 15.8477 10 16.0632 10C16.2787 10 16.4853 10.0856 16.6377 10.238C16.7901 10.3903 16.8757 10.597 16.8757 10.8125V14.875Z" fill="white"/>
<path d="M9.40866 1.53237C9.48192 1.44681 9.53659 1.34697 9.5692 1.23916C9.60181 1.13135 9.61165 1.01795 9.5981 0.906135C9.58454 0.794323 9.54789 0.68655 9.49047 0.589658C9.43304 0.492766 9.3561 0.408871 9.26453 0.343299C9.17296 0.277727 9.06875 0.231911 8.95852 0.208758C8.8483 0.185606 8.73446 0.185622 8.62425 0.208808C8.51403 0.231993 8.40984 0.277841 8.31828 0.34344C8.22673 0.40904 8.14981 0.492957 8.09241 0.589866L5.43555 4.31112H7.42617L9.40866 1.53237Z" fill="white"/>
<path d="M16.5764 4.30998H18.567L15.9101 0.58873C15.7779 0.434301 15.5926 0.335059 15.3907 0.310594C15.1889 0.286129 14.9852 0.33822 14.8199 0.456583C14.6546 0.574946 14.5397 0.75098 14.4979 0.949933C14.456 1.14889 14.4903 1.3563 14.5939 1.53123L16.5764 4.30998Z" fill="white"/>
</svg>
