<svg width="29" height="29" viewBox="0 0 29 29" fill="none" xmlns="http://www.w3.org/2000/svg">
<path d="M12.567 2.89844H3.86696C3.33568 2.89844 2.90039 3.33286 2.90039 3.86501V12.565C2.90039 13.0957 3.33568 13.5316 3.86696 13.5316H12.567C13.0985 13.5316 13.5338 13.0954 13.5338 12.565V3.86501C13.5338 3.33286 13.0985 2.89844 12.567 2.89844ZM11.6004 11.5984H4.83382V4.83187H11.6004V11.5984Z" fill="#0D1935"/>
<path d="M25.1337 2.89844H16.4337C15.9021 2.89844 15.4668 3.33286 15.4668 3.86501V12.565C15.4668 13.0957 15.9021 13.5316 16.4337 13.5316H25.1337C25.665 13.5316 26.1002 13.0954 26.1002 12.565V3.86501C26.1002 3.33286 25.665 2.89844 25.1337 2.89844ZM24.1668 11.5984H17.4002V4.83187H24.1668V11.5984Z" fill="#0D1935"/>
<path d="M12.567 15.4688H3.86696C3.33568 15.4688 2.90039 15.9029 2.90039 16.4353V25.1353C2.90039 25.6657 3.33568 26.1019 3.86696 26.1019H12.567C13.0985 26.1019 13.5338 25.6657 13.5338 25.1353V16.4353C13.5338 15.9029 13.0985 15.4688 12.567 15.4688ZM11.6004 24.1688H4.83382V17.4019H11.6004V24.1688Z" fill="#0D1935"/>
<path d="M25.1337 15.4688H16.4337C15.9021 15.4688 15.4668 15.9029 15.4668 16.4353V25.1353C15.4668 25.6657 15.9021 26.1019 16.4337 26.1019H25.1337C25.665 26.1019 26.1002 25.6657 26.1002 25.1353V16.4353C26.1002 15.9029 25.665 15.4688 25.1337 15.4688ZM24.1668 24.1688H17.4002V17.4019H24.1668V24.1688Z" fill="#0D1935"/>
</svg>
