<svg width="15" height="15" viewBox="0 0 15 15" fill="none" xmlns="http://www.w3.org/2000/svg">
<path d="M11.0343 4.44881C11.764 4.44881 12.3576 3.85516 12.3576 3.12547C12.3576 2.39578 11.764 1.80212 11.0343 1.80212C10.3046 1.80212 9.71094 2.39578 9.71094 3.12547C9.71094 3.85516 10.3046 4.44881 11.0343 4.44881ZM11.0343 2.68435C11.2775 2.68435 11.4754 2.88224 11.4754 3.12547C11.4754 3.3687 11.2775 3.56658 11.0343 3.56658C10.7911 3.56658 10.5932 3.3687 10.5932 3.12547C10.5932 2.88224 10.7911 2.68435 11.0343 2.68435Z" fill="#FE6D2C"/>
<path d="M3.97764 4.44881C4.70734 4.44881 5.30099 3.85516 5.30099 3.12547C5.30099 2.39578 4.70734 1.80212 3.97764 1.80212C3.24795 1.80212 2.6543 2.39578 2.6543 3.12547C2.6543 3.85516 3.24795 4.44881 3.97764 4.44881ZM3.97764 2.68435C4.22088 2.68435 4.41876 2.88224 4.41876 3.12547C4.41876 3.3687 4.22088 3.56658 3.97764 3.56658C3.73441 3.56658 3.53653 3.3687 3.53653 3.12547C3.53653 2.88224 3.73441 2.68435 3.97764 2.68435Z" fill="#FE6D2C"/>
<path d="M4.30183 8.90026C3.59434 8.7217 2.87341 9.15184 2.69473 9.8593C2.51608 10.5668 2.94628 11.2877 3.65377 11.4664C4.36279 11.6454 5.08257 11.2133 5.26087 10.5074C5.43952 9.7999 5.00929 9.07897 4.30183 8.90026ZM4.40549 10.2914C4.34594 10.5272 4.10565 10.6706 3.8698 10.6111C3.63398 10.5515 3.49059 10.3112 3.55011 10.0754C3.60966 9.83951 3.85001 9.69612 4.0858 9.75567C4.32162 9.81522 4.46504 10.0555 4.40549 10.2914Z" fill="#FE6D2C"/>
<path d="M10.1419 10.7751C9.83843 10.9563 9.62358 11.2448 9.53706 11.5875C9.32591 12.4232 9.95744 13.2354 10.8224 13.2354C11.4056 13.2354 11.9499 12.8424 12.1031 12.2356C12.1897 11.8928 12.1376 11.5369 11.9565 11.2334C11.5817 10.6054 10.7701 10.4002 10.1419 10.7751ZM11.0461 12.2903C10.945 12.3507 10.8263 12.3681 10.7121 12.3392C10.4757 12.2795 10.3327 12.0399 10.3924 11.8035L10.3924 11.8035C10.4213 11.6893 10.4929 11.5931 10.5941 11.5327C10.8034 11.4078 11.0739 11.4761 11.1989 11.6855C11.3237 11.8947 11.2556 12.1654 11.0461 12.2903Z" fill="#FE6D2C"/>
<path d="M10.0981 8.87181C9.37549 9.04619 8.62877 9.04625 7.93863 8.87195C7.43617 8.74506 6.95139 8.52215 6.51127 8.21887C6.18149 7.34828 6.12256 6.4145 6.38338 5.48066C6.75338 5.3822 7.13133 5.33103 7.50598 5.33103C8.21777 5.33103 8.94175 5.51392 9.59966 5.85993C10.7534 6.46664 12.2344 6.29955 13.2257 5.3013C13.809 4.71394 14.1274 3.93464 14.1225 3.10661C14.1274 2.27857 13.809 1.4993 13.2257 0.911939C12.2359 -0.0847753 10.7549 -0.254193 9.59966 0.35334C8.94173 0.699381 8.21774 0.882267 7.50598 0.882267C6.7942 0.882267 6.07024 0.699381 5.41228 0.35334C4.97278 0.122196 4.4765 3.64551e-05 3.97707 3.64551e-05C2.26372 3.64551e-05 0.879234 1.39167 0.889498 3.10666C0.886351 3.63418 1.01463 4.14184 1.25886 4.59278C1.90033 5.83537 1.94282 7.21962 1.3659 8.49556C1.19084 8.77317 1.05971 9.08028 0.978897 9.40844C0.771338 10.21 0.889233 11.0437 1.31097 11.756C2.02663 12.9647 3.42103 13.4917 4.68982 13.1854C5.41248 13.0111 6.15923 13.011 6.84931 13.1853C7.53942 13.3596 8.19656 13.7142 8.74978 14.2108C9.72626 15.0874 11.2026 15.2785 12.4022 14.557C13.1116 14.1303 13.6111 13.4527 13.809 12.6487C14.0166 11.8471 13.8987 11.0136 13.477 10.3013C12.7613 9.09251 11.3669 8.56555 10.0981 8.87181ZM2.59567 5.88875C3.49466 6.33933 4.54534 6.31022 5.3989 5.86675C5.32 6.37895 5.31782 6.88864 5.39254 7.40245C4.53852 6.96251 3.50654 6.92931 2.60105 7.38204C2.67251 6.88117 2.67172 6.3955 2.59567 5.88875ZM2.41226 1.53365C3.11627 0.824716 4.17242 0.698057 5.00166 1.13417C5.78573 1.54653 6.65172 1.7645 7.50601 1.7645C8.36028 1.7645 9.22627 1.54653 10.0104 1.13417C10.3282 0.96702 10.6729 0.882267 11.0349 0.882267C12.2599 0.882267 13.2488 1.87783 13.2403 3.10361C13.2365 3.12301 13.3025 3.97202 12.5998 4.67971C11.8961 5.38823 10.8402 5.51554 10.0104 5.07916C9.2263 4.6668 8.36034 4.44883 7.50601 4.44883C6.65169 4.44883 5.78573 4.6668 5.00166 5.07916C4.17336 5.51474 3.11707 5.38941 2.41226 4.67971C2.15447 4.42013 2.01784 4.13832 2.01596 4.13529L2.01566 4.13543C1.85401 3.8223 1.76923 3.47264 1.77173 3.10975L1.77176 3.10669C1.77764 3.07646 1.71279 2.23796 2.41226 1.53365ZM12.9544 12.4297L12.9529 12.4357C12.6612 13.6254 11.4593 14.3495 10.2708 14.0494C9.91982 13.9607 9.60634 13.7942 9.33911 13.5543C8.67988 12.9625 7.89364 12.5391 7.06534 12.3299C6.23187 12.1195 5.3387 12.1214 4.48288 12.3279C4.13378 12.4121 3.77883 12.4099 3.42782 12.3212C2.24019 12.0213 1.52514 10.8139 1.83351 9.62753C2.01746 9.02484 2.30057 8.58099 2.84046 8.25627C3.69608 7.74161 4.75108 7.87665 5.44883 8.503C6.10809 9.0948 6.89433 9.51816 7.7226 9.72733C8.55087 9.93648 9.44386 9.93722 10.305 9.72942C11.2155 9.50966 12.2087 9.89075 12.7178 10.7507C13.0194 11.2602 13.1034 11.8564 12.9544 12.4297Z" fill="#FE6D2C"/>
</svg>
