<svg width="22" height="22" viewBox="0 0 22 22" fill="none" xmlns="http://www.w3.org/2000/svg">
<g clip-path="url(#clip0_318_24424)">
<path d="M1.13665 22.0001C0.846851 22.0001 0.557057 21.8898 0.33688 21.668C-0.105132 21.226 -0.105132 20.5094 0.33688 20.0674L20.0727 0.331509C20.5147 -0.110503 21.2313 -0.110503 21.6734 0.331509C22.1154 0.773522 22.1154 1.49013 21.6734 1.93242L1.93779 21.668C1.71596 21.8884 1.42616 22.0001 1.13665 22.0001Z" fill="#D8D8D8"/>
<path d="M20.8739 22.0001C20.5841 22.0001 20.2945 21.8898 20.0741 21.668L0.33688 1.93242C-0.105132 1.49013 -0.105132 0.773522 0.33688 0.331509C0.778892 -0.110503 1.4955 -0.110503 1.93779 0.331509L21.6734 20.0674C22.1154 20.5094 22.1154 21.226 21.6734 21.668C21.4515 21.8884 21.162 22.0001 20.8739 22.0001Z" fill="#D8D8D8"/>
</g>
<defs>
<clipPath id="clip0_318_24424">
<rect width="22" height="22" fill="white"/>
</clipPath>
</defs>
</svg>
