<svg width="30" height="26" viewBox="0 0 30 26" fill="none" xmlns="http://www.w3.org/2000/svg">
<path d="M15.9959 17.7486H23.9934C24.2933 17.7486 24.4932 17.5487 24.4932 17.2488V12.7502C24.4932 12.4503 24.2933 12.2504 23.9934 12.2504H15.9959C15.696 12.2504 15.4961 12.4503 15.4961 12.7502V17.2488C15.496 17.5486 15.696 17.7486 15.9959 17.7486ZM16.4957 13.25H23.4936V16.7489H16.4957V13.25Z" fill="#0D1935"/>
<path d="M2.49982 11.2506H6.4986C6.7985 11.2506 6.99842 11.0507 6.99842 10.7508C6.99842 10.4509 6.7985 10.251 6.4986 10.251H2.49982C2.19992 10.251 2 10.4509 2 10.7508C2 11.0507 2.19992 11.2506 2.49982 11.2506Z" fill="#0D1935"/>
<path d="M8.49592 11.2506H12.4947C12.7946 11.2506 12.9945 11.0507 12.9945 10.7508C12.9945 10.4509 12.7946 10.251 12.4947 10.251H8.49592C8.19601 10.251 7.99609 10.4509 7.99609 10.7508C7.99609 11.0507 8.19601 11.2506 8.49592 11.2506Z" fill="#0D1935"/>
<path d="M2.49982 13.25H8.99777C9.29768 13.25 9.4976 13.0501 9.4976 12.7502C9.4976 12.4503 9.29768 12.2504 8.99777 12.2504H2.49982C2.19992 12.2504 2 12.4503 2 12.7502C2 13.0501 2.19992 13.25 2.49982 13.25Z" fill="#0D1935"/>
<path d="M12.4954 12.2502H10.9959C10.696 12.2502 10.4961 12.4502 10.4961 12.7501C10.4961 13.05 10.696 13.2499 10.9959 13.2499H12.4954C12.7954 13.2499 12.9953 13.05 12.9953 12.7501C12.9953 12.4502 12.7954 12.2502 12.4954 12.2502Z" fill="#0D1935"/>
<path d="M29.5408 6.05223C29.1909 5.60237 28.741 5.35243 28.1912 5.30246L26.9916 5.15708V3.75291V2.75326C26.9916 1.65363 26.0918 0.753906 24.9922 0.753906H1.99936C0.899719 0.753848 0 1.65357 0 2.75326V3.75297V7.75174V18.7483C0 19.6511 0.606666 20.4187 1.43235 20.6648C1.40716 21.6759 2.17221 22.5537 3.19904 22.6471L26.2918 25.2462C26.3418 25.2462 26.4418 25.2462 26.4917 25.2462C27.4914 25.2462 28.3912 24.4965 28.4911 23.5468L29.9906 7.5018C30.0406 7.00191 29.8906 6.45207 29.5408 6.05223ZM0.999707 4.25279H25.9919V5.55241V7.25186H0.999707V4.25279ZM1.99936 1.75355H24.9922C25.542 1.75355 25.9919 2.20341 25.9919 2.75326V3.25309H0.999707V2.75326C0.999707 2.20341 1.44957 1.75355 1.99936 1.75355ZM0.999707 18.7482V8.2515H25.9919V18.7482C25.9919 19.2981 25.5421 19.7479 24.9922 19.7479H2.04938H1.99941C1.44957 19.7479 0.999707 19.2981 0.999707 18.7482ZM28.9909 7.30182L27.4914 23.3468C27.4414 23.8967 26.9415 24.2965 26.3918 24.2465L3.34893 21.6474C2.84911 21.5974 2.49918 21.1975 2.44922 20.7476H24.9922C26.0918 20.7476 26.9915 19.8479 26.9915 18.7483V7.75168V6.1022L28.1412 6.20218C28.3911 6.20218 28.641 6.35214 28.7909 6.55205C28.941 6.75197 29.0409 7.05188 28.9909 7.30182Z" fill="#0D1935"/>
</svg>
