<svg width="21" height="21" viewBox="0 0 21 21" fill="none" xmlns="http://www.w3.org/2000/svg">
<g clip-path="url(#clip0_318_8095)">
<path d="M4.51232 10.8913L1.32234 7.70137C0.470263 6.84929 0.000976562 5.7164 0.000976562 4.51134C0.000976562 2.0238 2.02477 0 4.51232 0C6.99991 0 9.02367 2.0238 9.02367 4.51134C9.02367 5.7164 8.55442 6.84929 7.7023 7.70137L4.51232 10.8913ZM4.51232 1.23032C2.70317 1.23032 1.2313 2.7022 1.2313 4.51134C1.2313 5.38774 1.57259 6.21169 2.1923 6.8314L4.51232 9.15142L6.83238 6.8314C7.4521 6.21169 7.79339 5.38774 7.79339 4.51134C7.79339 2.7022 6.32151 1.23032 4.51232 1.23032Z" fill="#FE6D2C"/>
<path d="M4.51253 6.56217C3.38182 6.56217 2.46191 5.64226 2.46191 4.51156C2.46191 3.38085 3.38182 2.46094 4.51253 2.46094C5.64324 2.46094 6.56315 3.38085 6.56315 4.51156C6.56315 5.64226 5.64324 6.56217 4.51253 6.56217ZM4.51253 3.69126C4.06022 3.69126 3.69223 4.05925 3.69223 4.51156C3.69223 4.96386 4.06022 5.33185 4.51253 5.33185C4.96484 5.33185 5.33283 4.96386 5.33283 4.51156C5.33283 4.05925 4.96484 3.69126 4.51253 3.69126Z" fill="#FE6D2C"/>
<path d="M17.7175 20.9992L15.3974 18.6792C14.7778 18.0595 14.4365 17.2355 14.4365 16.3591C14.4365 14.55 15.9084 13.0781 17.7175 13.0781C19.5267 13.0781 20.9986 14.55 20.9986 16.3591C20.9986 17.2355 20.6573 18.0595 20.0376 18.6792L17.7175 20.9992ZM16.2674 17.8092L17.7175 19.2593L19.1676 17.8092C19.5549 17.4219 19.7682 16.9068 19.7682 16.3591C19.7682 15.2284 18.8483 14.3084 17.7175 14.3084C16.5868 14.3084 15.6668 15.2284 15.6668 16.3591C15.6668 16.9069 15.8802 17.4219 16.2674 17.8092Z" fill="#FE6D2C"/>
<path d="M14.7241 20.9975H7.85676C5.6736 20.9975 3.89746 19.2214 3.89746 17.0382C3.89746 14.855 5.6736 13.0788 7.85676 13.0788H10.1396C10.8129 13.0788 11.3607 12.5311 11.3607 11.8577C11.3607 11.1844 10.8129 10.6366 10.1396 10.6366H7.75268V9.40625H10.1396C11.4913 9.40625 12.591 10.506 12.591 11.8577C12.591 13.2095 11.4913 14.3092 10.1396 14.3092H7.85676C6.352 14.3092 5.12778 15.5334 5.12778 17.0381C5.12778 18.5429 6.35195 19.7672 7.85676 19.7672H14.7242V20.9975H14.7241Z" fill="#FE6D2C"/>
</g>
<defs>
<clipPath id="clip0_318_8095">
<rect width="21" height="21" fill="white"/>
</clipPath>
</defs>
</svg>
