<svg width="25" height="25" viewBox="0 0 25 25" fill="none" xmlns="http://www.w3.org/2000/svg">
<path d="M8.33398 17.917H7.50065C7.27055 17.917 7.08398 18.1036 7.08398 18.3337C7.08398 18.5638 7.27055 18.7503 7.50065 18.7503H8.33398C8.56409 18.7503 8.75065 18.5638 8.75065 18.3337C8.75065 18.1036 8.56409 17.917 8.33398 17.917Z" fill="#FE6D2C"/>
<path d="M20.0007 17.917H10.0007C9.77055 17.917 9.58398 18.1036 9.58398 18.3337C9.58398 18.5638 9.77055 18.7503 10.0007 18.7503H20.0007C20.2308 18.7503 20.4173 18.5638 20.4173 18.3337C20.4173 18.1036 20.2308 17.917 20.0007 17.917Z" fill="#FE6D2C"/>
<path d="M8.33398 15.417H7.50065C7.27055 15.417 7.08398 15.6036 7.08398 15.8337C7.08398 16.0638 7.27055 16.2503 7.50065 16.2503H8.33398C8.56409 16.2503 8.75065 16.0638 8.75065 15.8337C8.75065 15.6036 8.56409 15.417 8.33398 15.417Z" fill="#FE6D2C"/>
<path d="M20.0007 15.417H10.0007C9.77055 15.417 9.58398 15.6036 9.58398 15.8337C9.58398 16.0638 9.77055 16.2503 10.0007 16.2503H20.0007C20.2308 16.2503 20.4173 16.0638 20.4173 15.8337C20.4173 15.6036 20.2308 15.417 20.0007 15.417Z" fill="#FE6D2C"/>
<path d="M8.33398 12.917H7.50065C7.27055 12.917 7.08398 13.1036 7.08398 13.3337C7.08398 13.5638 7.27055 13.7503 7.50065 13.7503H8.33398C8.56409 13.7503 8.75065 13.5638 8.75065 13.3337C8.75065 13.1036 8.56409 12.917 8.33398 12.917Z" fill="#FE6D2C"/>
<path d="M20.0007 12.917H10.0007C9.77055 12.917 9.58398 13.1036 9.58398 13.3337C9.58398 13.5638 9.77055 13.7503 10.0007 13.7503H20.0007C20.2308 13.7503 20.4173 13.5638 20.4173 13.3337C20.4173 13.1036 20.2308 12.917 20.0007 12.917Z" fill="#FE6D2C"/>
<path d="M8.33398 10.417H7.50065C7.27055 10.417 7.08398 10.6036 7.08398 10.8337C7.08398 11.0638 7.27055 11.2503 7.50065 11.2503H8.33398C8.56409 11.2503 8.75065 11.0638 8.75065 10.8337C8.75065 10.6036 8.56409 10.417 8.33398 10.417Z" fill="#FE6D2C"/>
<path d="M20.0007 10.417H10.0007C9.77055 10.417 9.58398 10.6036 9.58398 10.8337C9.58398 11.0638 9.77055 11.2503 10.0007 11.2503H20.0007C20.2308 11.2503 20.4173 11.0638 20.4173 10.8337C20.4173 10.6036 20.2308 10.417 20.0007 10.417Z" fill="#FE6D2C"/>
<path d="M8.33398 7.91699H7.50065C7.27055 7.91699 7.08398 8.10355 7.08398 8.33366C7.08398 8.56376 7.27055 8.75033 7.50065 8.75033H8.33398C8.56409 8.75033 8.75065 8.56376 8.75065 8.33366C8.75065 8.10355 8.56409 7.91699 8.33398 7.91699Z" fill="#FE6D2C"/>
<path d="M20.0007 7.91699H10.0007C9.77055 7.91699 9.58398 8.10355 9.58398 8.33366C9.58398 8.56376 9.77055 8.75033 10.0007 8.75033H20.0007C20.2308 8.75033 20.4173 8.56376 20.4173 8.33366C20.4173 8.10355 20.2308 7.91699 20.0007 7.91699Z" fill="#FE6D2C"/>
<path d="M22.9119 6.22375C22.9098 6.18724 22.9027 6.1512 22.8907 6.11667C22.8861 6.10333 22.8827 6.09042 22.8769 6.0775C22.8566 6.03219 22.8284 5.99083 22.7936 5.95542L16.9602 0.122083C16.9248 0.0872396 16.8835 0.0590104 16.8382 0.03875C16.8252 0.0329167 16.8123 0.0295833 16.7994 0.025C16.7646 0.0130208 16.7283 0.00572917 16.6915 0.00333333C16.6844 0.00458333 16.6765 0 16.6673 0H5.00065C4.77055 0 4.58398 0.186562 4.58398 0.416667V1.66667H2.50065C2.27055 1.66667 2.08398 1.85323 2.08398 2.08333V24.5833C2.08398 24.8134 2.27055 25 2.50065 25H20.0007C20.2308 25 20.4173 24.8134 20.4173 24.5833V22.5H22.5007C22.7308 22.5 22.9173 22.3134 22.9173 22.0833V6.25C22.9173 6.24083 22.9127 6.23292 22.9119 6.22375ZM17.084 1.4225L21.4948 5.83333H17.084V1.4225ZM19.584 24.1667H2.91732V2.5H4.58398V22.0833C4.58398 22.3134 4.77055 22.5 5.00065 22.5H19.584V24.1667ZM22.084 21.6667H5.41732V0.833333H16.2507V6.25C16.2507 6.4801 16.4372 6.66667 16.6673 6.66667H22.084V21.6667Z" fill="#FE6D2C"/>
<path d="M10.0007 3.75H7.50065C7.27055 3.75 7.08398 3.93656 7.08398 4.16667V6.66667C7.08398 6.89677 7.27055 7.08333 7.50065 7.08333H10.0007C10.2308 7.08333 10.4173 6.89677 10.4173 6.66667V4.16667C10.4173 3.93656 10.2308 3.75 10.0007 3.75ZM9.58398 6.25H7.91732V4.58333H9.58398V6.25Z" fill="#FE6D2C"/>
</svg>
