<svg width="15" height="15" viewBox="0 0 15 15" fill="none" xmlns="http://www.w3.org/2000/svg">
<g clip-path="url(#clip0_318_4835)">
<path d="M14.0625 11.25V13.125C14.0625 13.642 13.642 14.0625 13.125 14.0625H1.875C1.35797 14.0625 0.9375 13.642 0.9375 13.125V11.25C0.9375 10.9913 1.1475 10.7812 1.40625 10.7812C1.665 10.7812 1.875 10.9913 1.875 11.25V13.125H13.125V11.25C13.125 10.9913 13.335 10.7812 13.5938 10.7812C13.8525 10.7812 14.0625 10.9913 14.0625 11.25Z" fill="#0F0F0F"/>
<path d="M3.88746 7.83141C3.70418 7.64812 3.70418 7.35187 3.88746 7.16859C4.07074 6.98531 4.36699 6.98531 4.55027 7.16859L7.03137 9.64969V1.40625C7.03137 1.1475 7.24137 0.9375 7.50012 0.9375C7.75887 0.9375 7.96887 1.1475 7.96887 1.40625V9.64969L10.45 7.16859C10.6332 6.98531 10.9295 6.98531 11.1128 7.16859C11.2961 7.35187 11.2961 7.64812 11.1128 7.83141L7.83152 11.1127C7.6459 11.2987 7.34824 11.2927 7.16824 11.1127L3.88746 7.83141Z" fill="#0F0F0F"/>
</g>
<defs>
<clipPath id="clip0_318_4835">
<rect width="15" height="15" fill="white"/>
</clipPath>
</defs>
</svg>
