<svg width="20" height="20" viewBox="0 0 20 20" fill="none" xmlns="http://www.w3.org/2000/svg">
<path d="M4.34124 6.02534V1.83399C4.34124 1.35091 3.94959 0.958984 3.46623 0.958984C2.98287 0.958984 2.59123 1.35091 2.59123 1.83399V6.02538C1.64011 6.38209 0.958008 7.2932 0.958008 8.36744C0.958008 9.44168 1.64011 10.3527 2.59123 10.7095V18.1673C2.59123 18.6504 2.98287 19.0423 3.46623 19.0423C3.94959 19.0423 4.34124 18.6504 4.34124 18.1673V10.7095C5.29247 10.3528 5.97474 9.44171 5.97474 8.36744C5.97474 7.29316 5.29247 6.38206 4.34124 6.02534Z" fill="white"/>
<path d="M10.8744 9.83642V1.83399C10.8744 1.35091 10.4828 0.958984 9.99943 0.958984C9.51607 0.958984 9.12443 1.35091 9.12443 1.83399V9.83642C8.17331 10.1931 7.49121 11.1042 7.49121 12.1785C7.49121 13.2527 8.17331 14.1638 9.12443 14.5205V18.1673C9.12443 18.6504 9.51607 19.0423 9.99943 19.0423C10.4828 19.0423 10.8744 18.6504 10.8744 18.1673V14.5205C11.8256 14.1639 12.5077 13.2528 12.5077 12.1785C12.5077 11.1042 11.8256 10.1931 10.8744 9.83642Z" fill="white"/>
<path d="M17.4079 6.02538V1.83399C17.4079 1.35091 17.0163 0.958984 16.5329 0.958984C16.0496 0.958984 15.6579 1.35091 15.6579 1.83399V6.02534C14.7067 6.38206 14.0244 7.29316 14.0244 8.36744C14.0244 9.44171 14.7067 10.3528 15.6579 10.7095V18.1673C15.6579 18.6504 16.0496 19.0423 16.5329 19.0423C17.0163 19.0423 17.4079 18.6504 17.4079 18.1673V10.7095C18.3591 10.3528 19.0411 9.44171 19.0411 8.36744C19.0411 7.29316 18.3591 6.38206 17.4079 6.02538Z" fill="white"/>
</svg>
