<svg width="15" height="15" viewBox="0 0 15 15" fill="none" xmlns="http://www.w3.org/2000/svg">
<g clip-path="url(#clip0_318_4827)">
<path d="M6.90825 10.174C7.02258 10.0594 7.02258 9.87404 6.90825 9.75949C6.79381 9.64528 6.60842 9.64528 6.49386 9.75949C6.37965 9.87404 6.37965 10.0594 6.49386 10.174C6.60842 10.2882 6.79381 10.2882 6.90825 10.174Z" fill="#0F0F0F"/>
<path d="M5.52148 3.22174C5.52148 4.99821 6.96676 6.4436 8.74323 6.4436C10.5197 6.4436 11.965 4.99821 11.965 3.22174C11.965 1.44527 10.5197 0 8.74323 0C6.96676 0 5.52148 1.44527 5.52148 3.22174ZM11.3793 3.22174C11.3793 4.67526 10.1967 5.85778 8.74323 5.85778C7.28971 5.85778 6.10719 4.67526 6.10719 3.22174C6.10719 1.76834 7.28971 0.585823 8.74323 0.585823C10.1967 0.585823 11.3793 1.76834 11.3793 3.22174Z" fill="#0F0F0F"/>
<path d="M3.3892 14.9133C3.50273 15.0277 3.68755 15.029 3.80256 14.9157L5.22254 13.5168C5.46379 13.2755 5.53714 12.9184 5.43106 12.6079L5.7365 12.3133C5.90095 12.1545 6.11747 12.0669 6.34635 12.0669H10.24C10.9307 12.0669 11.5836 11.8016 12.0786 11.32C12.099 11.3002 11.924 11.5063 14.7349 8.14674C15.1518 7.6535 15.0894 6.91284 14.5957 6.49548C14.1051 6.082 13.3702 6.1414 12.9521 6.62617L11.2238 8.40252C11.0056 8.13393 10.6728 7.9665 10.3132 7.9665H7.04719C6.58245 7.77206 6.08932 7.67365 5.58051 7.67365C4.17015 7.67365 2.93865 8.32504 2.27775 9.54636C1.99932 9.4936 1.70566 9.57783 1.4944 9.78909L0.101084 11.1865C-0.0126703 11.3006 -0.0128992 11.4852 0.100626 11.5997L3.3892 14.9133ZM5.5804 8.25935C6.02901 8.25935 6.46274 8.34965 6.86981 8.52772C6.90689 8.54397 6.94683 8.55232 6.98722 8.55232H10.3132C10.6308 8.55232 10.899 8.8113 10.899 9.13803C10.899 9.4611 10.6363 9.72386 10.3132 9.72386H7.92358C7.76187 9.72386 7.63072 9.855 7.63072 10.0167C7.63072 10.1785 7.76187 10.3096 7.92358 10.3096H10.3132C10.9592 10.3096 11.4848 9.78405 11.4848 9.13803C11.4848 9.08653 11.4811 9.03549 11.4745 8.98491C13.1463 7.26635 13.3821 7.02488 13.3921 7.01286C13.6009 6.76647 13.9714 6.73523 14.2179 6.94305C14.4647 7.15168 14.4959 7.52201 14.2866 7.76978L11.6596 10.9103C11.276 11.2785 10.7724 11.4812 10.24 11.4812H6.34635C5.96481 11.4812 5.60363 11.6271 5.32966 11.8918L5.08075 12.132L2.78621 9.83761C3.32248 8.83156 4.32876 8.25935 5.5804 8.25935ZM1.90891 10.203C2.0055 10.1064 2.15381 10.089 2.27157 10.1618C2.32227 10.1927 2.1767 10.0602 4.80838 12.6882C4.92546 12.8053 4.91916 12.9918 4.80998 13.101L3.59943 14.2936L0.721583 11.3938L1.90891 10.203Z" fill="#0F0F0F"/>
<path d="M8.39166 1.46436V1.80756C8.05074 1.92841 7.80583 2.254 7.80583 2.63589C7.80583 3.12032 8.19997 3.51457 8.68451 3.51457C8.84599 3.51457 8.97737 3.64594 8.97737 3.80742C8.97737 3.9689 8.84599 4.10027 8.68451 4.10027C8.55943 4.10027 8.42427 4.02165 8.30422 3.87872C8.20008 3.75489 8.01537 3.73898 7.89155 3.84301C7.76772 3.94715 7.7517 4.13186 7.85584 4.25569C8.0124 4.44188 8.19653 4.57166 8.39166 4.63712V4.97895C8.39166 5.14077 8.52281 5.27181 8.68451 5.27181C8.84622 5.27181 8.97737 5.14077 8.97737 4.97895V4.63574C9.31829 4.51478 9.56319 4.1892 9.56319 3.80742C9.56319 3.32288 9.16906 2.92874 8.68451 2.92874C8.52304 2.92874 8.39166 2.79736 8.39166 2.63589C8.39166 2.47441 8.52304 2.34292 8.68451 2.34292C8.78831 2.34292 8.89783 2.39591 9.00129 2.49604C9.11756 2.60854 9.30295 2.60545 9.41545 2.48929C9.52795 2.37302 9.52486 2.18762 9.4087 2.07513C9.26004 1.93127 9.11126 1.84991 8.97737 1.8055V1.46436C8.97737 1.30254 8.84622 1.17139 8.68451 1.17139C8.52281 1.17139 8.39166 1.30254 8.39166 1.46436Z" fill="#0F0F0F"/>
</g>
<defs>
<clipPath id="clip0_318_4827">
<rect width="14.9707" height="15" fill="white"/>
</clipPath>
</defs>
</svg>
