<svg width="15" height="15" viewBox="0 0 15 15" fill="none" xmlns="http://www.w3.org/2000/svg">
<g clip-path="url(#clip0_318_5512)">
<path d="M7.5 0C3.3544 0 0 3.3547 0 7.5C0 11.6456 3.3547 15 7.5 15C11.6456 15 15 11.6453 15 7.5C15 3.3544 11.6453 0 7.5 0ZM7.5 13.8281C4.00216 13.8281 1.17188 10.9976 1.17188 7.5C1.17188 4.00216 4.00239 1.17188 7.5 1.17188C10.9978 1.17188 13.8281 4.00239 13.8281 7.5C13.8281 10.9978 10.9976 13.8281 7.5 13.8281Z" fill="#E0E0E0"/>
<path d="M7.5 6.27734C7.17639 6.27734 6.91406 6.53967 6.91406 6.86328V10.6365C6.91406 10.9601 7.17639 11.2225 7.5 11.2225C7.82361 11.2225 8.08594 10.9601 8.08594 10.6365V6.86328C8.08594 6.53967 7.82361 6.27734 7.5 6.27734Z" fill="#E0E0E0"/>
<path d="M7.5 5.5625C7.93687 5.5625 8.29102 5.20835 8.29102 4.77148C8.29102 4.33462 7.93687 3.98047 7.5 3.98047C7.06313 3.98047 6.70898 4.33462 6.70898 4.77148C6.70898 5.20835 7.06313 5.5625 7.5 5.5625Z" fill="#E0E0E0"/>
</g>
<defs>
<clipPath id="clip0_318_5512">
<rect width="15" height="15" fill="white"/>
</clipPath>
</defs>
</svg>
