<svg width="13" height="13" viewBox="0 0 13 13" fill="none" xmlns="http://www.w3.org/2000/svg">
<path d="M10.4725 7.95846C9.81146 7.29741 9.02462 6.80804 8.16612 6.5118C9.0856 5.87851 9.68967 4.81866 9.68967 3.62023C9.68967 1.68542 8.11557 0.111328 6.18077 0.111328C4.24597 0.111328 2.67188 1.68542 2.67188 3.62023C2.67188 4.81866 3.27595 5.87851 4.19545 6.5118C3.33695 6.80804 2.55011 7.29741 1.88904 7.95846C0.742669 9.10485 0.111328 10.629 0.111328 12.2502H1.05968C1.05968 9.42643 3.35699 7.12912 6.18077 7.12912C9.00456 7.12912 11.3019 9.42643 11.3019 12.2502H12.2502C12.2502 10.629 11.6189 9.10485 10.4725 7.95846ZM6.18077 6.18077C4.76889 6.18077 3.62023 5.03213 3.62023 3.62023C3.62023 2.20832 4.76889 1.05968 6.18077 1.05968C7.59265 1.05968 8.74132 2.20832 8.74132 3.62023C8.74132 5.03213 7.59265 6.18077 6.18077 6.18077Z" fill="#D6D6D6"/>
</svg>
