<svg width="15" height="15" viewBox="0 0 15 15" fill="none" xmlns="http://www.w3.org/2000/svg">
<path d="M14.0625 13.5938V6.17016C14.0625 5.61094 13.6078 5.15626 13.0486 5.15626H10.3125V1.75126C10.3125 1.71094 10.3036 1.20423 9.86297 0.908913C9.42234 0.614069 8.95031 0.798757 8.91281 0.813757L2.03391 3.64641C1.65281 3.80344 1.40625 4.17094 1.40625 4.58391V13.5938H0.9375C0.67875 13.5938 0.46875 13.8038 0.46875 14.0625C0.46875 14.3213 0.67875 14.5313 0.9375 14.5313H1.875H9.84375H13.5938H14.0625C14.3212 14.5313 14.5312 14.3213 14.5312 14.0625C14.5312 13.8038 14.3212 13.5938 14.0625 13.5938ZM2.34375 4.58391C2.34375 4.55298 2.3625 4.52532 2.39109 4.5136L9.27 1.68141C9.29578 1.6711 9.31922 1.67344 9.34125 1.68844C9.36375 1.70298 9.375 1.72407 9.375 1.75126V5.62501V13.5938H2.34375V4.58391ZM10.3125 13.5938V6.09376H13.0486C13.0908 6.09376 13.125 6.12798 13.125 6.17016V13.5938H10.3125Z" fill="#FE6D2C"/>
<path d="M7.03125 11.25H4.6875C4.42875 11.25 4.21875 11.46 4.21875 11.7187C4.21875 11.9775 4.42875 12.1875 4.6875 12.1875H7.03125C7.29 12.1875 7.5 11.9775 7.5 11.7187C7.5 11.46 7.29 11.25 7.03125 11.25Z" fill="#FE6D2C"/>
<path d="M7.03125 9.375H4.6875C4.42875 9.375 4.21875 9.585 4.21875 9.84375C4.21875 10.1025 4.42875 10.3125 4.6875 10.3125H7.03125C7.29 10.3125 7.5 10.1025 7.5 9.84375C7.5 9.585 7.29 9.375 7.03125 9.375Z" fill="#FE6D2C"/>
<path d="M7.03125 7.5H4.6875C4.42875 7.5 4.21875 7.71 4.21875 7.96875C4.21875 8.2275 4.42875 8.4375 4.6875 8.4375H7.03125C7.29 8.4375 7.5 8.2275 7.5 7.96875C7.5 7.71 7.29 7.5 7.03125 7.5Z" fill="#FE6D2C"/>
<path d="M7.03125 5.625H4.6875C4.42875 5.625 4.21875 5.835 4.21875 6.09375C4.21875 6.3525 4.42875 6.5625 4.6875 6.5625H7.03125C7.29 6.5625 7.5 6.3525 7.5 6.09375C7.5 5.835 7.29 5.625 7.03125 5.625Z" fill="#FE6D2C"/>
</svg>
