<svg width="23" height="23" viewBox="0 0 23 23" fill="none" xmlns="http://www.w3.org/2000/svg">
<g clip-path="url(#clip0_318_11013)">
<path d="M22.3132 4.08965L18.8954 0.671939C18.355 0.131489 17.4128 0.131489 16.8714 0.671939L16.0449 1.49838L21.4877 6.94018L22.3132 6.11468C22.5839 5.84398 22.7322 5.4843 22.7322 5.10171C22.7321 4.71908 22.5839 4.3594 22.3132 4.08965Z" fill="#FE6D2C"/>
<path d="M0.751974 21.6448C0.704151 21.8113 0.750084 21.9911 0.873445 22.1145C0.964322 22.2054 1.08674 22.2541 1.21208 22.2541C1.25513 22.2541 1.29913 22.2484 1.34313 22.236L7.76827 20.4004L2.58856 15.2197L0.751974 21.6448Z" fill="#FE6D2C"/>
<path d="M3.13442 14.4186L8.57617 19.8604L20.8132 7.62338L15.3714 2.18164L3.13442 14.4186Z" fill="#FE6D2C"/>
</g>
<defs>
<clipPath id="clip0_318_11013">
<rect width="22" height="22" fill="white" transform="translate(0.733398 0.266602)"/>
</clipPath>
</defs>
</svg>
