<svg width="22" height="22" viewBox="0 0 22 22" fill="none" xmlns="http://www.w3.org/2000/svg">
<path d="M4.35114 10.6511C2.94374 10.6511 1.79883 9.51655 1.79883 8.1225C1.79883 6.72826 2.94374 5.59375 4.35114 5.59375C5.75837 5.59375 6.9031 6.72809 6.9031 8.1225C6.9031 9.51673 5.75837 10.6511 4.35114 10.6511ZM4.35114 6.30343C3.33496 6.30343 2.50851 7.11949 2.50851 8.1225C2.50851 9.12533 3.33496 9.94139 4.35114 9.94139C5.36697 9.94139 6.19343 9.12533 6.19343 8.1225C6.19343 7.11949 5.36697 6.30343 4.35114 6.30343Z" fill="#FE6D2C"/>
<path d="M5.37854 17.6533H0.927467C0.416 17.6533 0 17.2399 0 16.7317V15.5711C0 13.195 1.95213 11.2617 4.3518 11.2617C5.29555 11.2617 6.19391 11.5563 6.94898 12.1133C7.10665 12.2297 7.14026 12.4518 7.02383 12.6097C6.9074 12.7672 6.68545 12.8008 6.52761 12.6845C5.89538 12.2181 5.14308 11.9714 4.3518 11.9714C2.34353 11.9714 0.709678 13.5864 0.709678 15.5711V16.7317C0.709678 16.8485 0.807397 16.9436 0.927467 16.9436H5.37872C5.5745 16.9436 5.73356 17.1025 5.73356 17.2985C5.73356 17.4943 5.5745 17.6533 5.37854 17.6533Z" fill="#FE6D2C"/>
<path d="M21.0716 17.3836H16.6206C16.4248 17.3836 16.2657 17.2247 16.2657 17.0288C16.2657 16.833 16.4248 16.6739 16.6206 16.6739H21.0718C21.1919 16.6739 21.2896 16.579 21.2896 16.4622V15.3015C21.2896 13.3165 19.6557 11.7019 17.6475 11.7019C16.8087 11.7019 15.9899 11.9907 15.3417 12.5153C15.1896 12.6385 14.9663 12.6151 14.8427 12.4628C14.7195 12.3105 14.7428 12.087 14.8954 11.9637C15.6694 11.3373 16.6467 10.9922 17.6475 10.9922C20.047 10.9922 21.9991 12.9253 21.9991 15.3015V16.4622C21.9991 16.9702 21.5831 17.3836 21.0716 17.3836Z" fill="#FE6D2C"/>
<path d="M17.6477 10.4753C16.2404 10.4753 15.0957 9.34095 15.0957 7.94671C15.0957 6.55248 16.2404 5.41797 17.6477 5.41797C19.0551 5.41797 20.2 6.55231 20.2 7.94671C20.2 9.34112 19.0549 10.4753 17.6477 10.4753ZM17.6477 6.12765C16.6318 6.12765 15.8054 6.94371 15.8054 7.94671C15.8054 8.94972 16.6318 9.76561 17.6477 9.76561C18.6638 9.76561 19.4903 8.94972 19.4903 7.94671C19.4903 6.94371 18.6637 6.12765 17.6477 6.12765Z" fill="#FE6D2C"/>
<path d="M15.8157 18.8065H6.18377C5.54391 18.8065 5.02344 18.2898 5.02344 17.6546V16.0222C5.02344 12.7597 7.70413 10.1055 10.9997 10.1055C14.2953 10.1055 16.976 12.7597 16.976 16.0222V17.6546C16.976 18.2898 16.4555 18.8065 15.8157 18.8065ZM10.9997 10.8153C8.0957 10.8153 5.73311 13.1512 5.73311 16.0223V17.6548C5.73311 17.8986 5.93531 18.097 6.18377 18.097H15.8155C16.064 18.097 16.2662 17.8986 16.2662 17.6548V16.0223C16.2663 13.1512 13.9038 10.8153 10.9997 10.8153Z" fill="#FE6D2C"/>
<path d="M10.8771 9.6926C9.06899 9.6926 7.59766 8.2353 7.59766 6.44378C7.59766 4.65244 9.06882 3.19531 10.8771 3.19531C12.6856 3.19531 14.1568 4.65261 14.1568 6.44396C14.1568 8.23548 12.6855 9.6926 10.8771 9.6926ZM10.8771 3.90499C9.46021 3.90499 8.30733 5.04401 8.30733 6.44396C8.30733 7.84408 9.46021 8.9831 10.8771 8.9831C12.2942 8.9831 13.4471 7.84408 13.4471 6.44396C13.4471 5.04401 12.2942 3.90499 10.8771 3.90499Z" fill="#FE6D2C"/>
</svg>
