<svg width="18" height="24" viewBox="0 0 18 24" fill="none" xmlns="http://www.w3.org/2000/svg">
<path d="M9.00047 0C4.11182 0 0.134766 3.97705 0.134766 8.86571C0.134766 10.4751 0.856538 12.206 0.886786 12.279C1.1199 12.8323 1.57988 13.6918 1.91156 14.1956L7.9903 23.406C8.23906 23.7836 8.60725 24 9.00047 24C9.39369 24 9.76188 23.7836 10.0106 23.4065L16.0899 14.1956C16.4221 13.6918 16.8816 12.8323 17.1147 12.279C17.1449 12.2065 17.8662 10.4756 17.8662 8.86571C17.8662 3.97705 13.8891 0 9.00047 0ZM16.153 11.8743C15.9449 12.3703 15.5168 13.1698 15.219 13.6214L9.13972 22.8323C9.01977 23.0143 8.9817 23.0143 8.86175 22.8323L2.78248 13.6214C2.4847 13.1698 2.05654 12.3698 1.84845 11.8738C1.83959 11.8524 1.17779 10.2592 1.17779 8.86571C1.17779 4.55228 4.68704 1.04302 9.00047 1.04302C13.3139 1.04302 16.8232 4.55228 16.8232 8.86571C16.8232 10.2613 16.1598 11.8587 16.153 11.8743Z" fill="#FE6D2C"/>
<path d="M9.00026 4.17188C6.41199 4.17188 4.30664 6.27774 4.30664 8.86548C4.30664 11.4532 6.41199 13.5591 9.00026 13.5591C11.5885 13.5591 13.6939 11.4532 13.6939 8.86548C13.6939 6.27774 11.5885 4.17188 9.00026 4.17188ZM9.00026 12.5161C6.98774 12.5161 5.34967 10.8785 5.34967 8.86548C5.34967 6.85245 6.98774 5.2149 9.00026 5.2149C11.0128 5.2149 12.6508 6.85245 12.6508 8.86548C12.6508 10.8785 11.0128 12.5161 9.00026 12.5161Z" fill="#FE6D2C"/>
</svg>
