<svg width="22" height="22" viewBox="0 0 22 22" fill="none" xmlns="http://www.w3.org/2000/svg">
<path d="M18.9974 7.82309H14.277V2.89475C14.277 2.18319 13.9989 1.51322 13.4947 1.00894C12.99 0.504656 12.3204 0.226562 11.6089 0.226562H2.99826C1.52701 0.226562 0.330078 1.4235 0.330078 2.89475V8.63503C0.330078 10.1063 1.52701 11.3032 2.99826 11.3032H3.20005V12.9402C3.20005 13.4468 3.50151 13.8961 3.96833 14.0852C4.11854 14.146 4.27495 14.1752 4.42998 14.1752C4.75276 14.1752 5.06764 14.047 5.29898 13.8085L7.71898 11.4015V16.2312C7.71898 17.7021 8.91729 18.8991 10.3899 18.8991H14.1784L16.6919 21.3991C16.9284 21.6425 17.2446 21.7721 17.5691 21.7721C17.7242 21.7721 17.8806 21.7426 18.0311 21.6814C18.4973 21.4926 18.7984 21.0441 18.7984 20.5384V18.8987H18.9974C20.4704 18.8987 21.6687 17.7021 21.6687 16.2309V10.4902C21.6687 9.02003 20.4704 7.82309 18.9974 7.82309ZM7.60486 10.272C7.46873 10.272 7.33776 10.3259 7.24117 10.4222L4.56508 13.0838C4.48636 13.165 4.40042 13.1474 4.35539 13.1292C4.30898 13.1103 4.23129 13.0612 4.23129 12.9402V10.7876C4.23129 10.5026 4.00064 10.272 3.71567 10.272H2.99826C2.09558 10.272 1.36133 9.53772 1.36133 8.63503V2.89475C1.36133 1.99206 2.09558 1.25781 2.99826 1.25781H11.6085C12.0451 1.25781 12.4555 1.42831 12.7652 1.73803C13.0749 2.04741 13.2454 2.45819 13.2454 2.89441V8.63468C13.2454 9.53737 12.5109 10.2716 11.6082 10.2716H7.60486V10.272ZM20.6374 16.2312C20.6374 17.1336 19.9018 17.8678 18.9974 17.8678H18.2828C17.9981 17.8678 17.7671 18.0988 17.7671 18.3834V20.5387C17.7671 20.6584 17.6894 20.7075 17.6437 20.7261C17.598 20.7443 17.5114 20.7629 17.4258 20.6752L14.7548 18.0184C14.6583 17.9225 14.5276 17.8682 14.3912 17.8682H10.3899C9.48585 17.8682 8.75023 17.1339 8.75023 16.2316V11.3032H11.6082C13.0055 11.3032 14.1529 10.2235 14.2654 8.85468H18.9971C19.9015 8.85468 20.6371 9.58859 20.6371 10.4909V16.2312H20.6374Z" fill="#FE6D2C"/>
<path d="M11.501 12.6055C11.0816 12.6055 10.7402 12.9472 10.7402 13.3662C10.7402 13.7852 11.0819 14.1269 11.501 14.1269C11.9207 14.1269 12.2624 13.7852 12.2624 13.3662C12.2624 12.9472 11.921 12.6055 11.501 12.6055Z" fill="#FE6D2C"/>
<path d="M14.6924 12.6055C14.273 12.6055 13.9316 12.9472 13.9316 13.3662C13.9316 13.7852 14.2733 14.1269 14.6924 14.1269C15.1121 14.1269 15.4538 13.7852 15.4538 13.3662C15.4538 12.9472 15.1121 12.6055 14.6924 12.6055Z" fill="#FE6D2C"/>
<path d="M17.8857 12.6055C17.4663 12.6055 17.125 12.9472 17.125 13.3662C17.125 13.7852 17.4667 14.1269 17.8857 14.1269C18.3054 14.1269 18.6471 13.7852 18.6471 13.3662C18.6471 12.9472 18.3054 12.6055 17.8857 12.6055Z" fill="#FE6D2C"/>
<path d="M7.13275 7.5C6.83506 7.5 6.59375 7.74819 6.59375 8.04622C6.59375 8.33703 6.82784 8.59244 7.13275 8.59244C7.43766 8.59244 7.67897 8.33703 7.67897 8.04622C7.67897 7.74819 7.43078 7.5 7.13275 7.5Z" fill="#FE6D2C"/>
<path d="M7.23825 2.93359C6.141 2.93359 5.63672 3.58397 5.63672 4.02294C5.63672 4.33987 5.90484 4.48631 6.1245 4.48631C6.56347 4.48631 6.38472 3.86034 7.21384 3.86034C7.62016 3.86034 7.94534 4.03909 7.94534 4.41309C7.94534 4.85206 7.49022 5.10403 7.22209 5.33159C6.98628 5.53475 6.67725 5.86819 6.67725 6.56737C6.67725 6.99019 6.79103 7.11187 7.12447 7.11187C7.52288 7.11187 7.604 6.93312 7.604 6.77844C7.604 6.35562 7.61225 6.11191 8.05913 5.76231C8.27844 5.59147 8.96938 5.03872 8.96938 4.27456C8.96972 3.51075 8.27878 2.93359 7.23825 2.93359Z" fill="#FE6D2C"/>
</svg>
