<svg width="15" height="15" viewBox="0 0 15 15" fill="none" xmlns="http://www.w3.org/2000/svg">
<g clip-path="url(#clip0_318_4821)">
<path d="M7.43631 1.21631C8.54132 1.21631 9.64808 1.52997 10.637 2.12345C11.2642 2.50083 11.8278 2.97511 12.3066 3.52893L10.6545 3.47444C10.4605 3.46796 10.298 3.62012 10.2917 3.81425C10.2853 4.00827 10.4373 4.17087 10.6315 4.17713L12.9172 4.2526C13.0485 4.30666 13.1994 4.27644 13.2998 4.17592C13.4001 4.07539 13.4301 3.92444 13.3759 3.79316L13.3006 1.508C13.2962 1.31387 13.1353 1.16006 12.9411 1.16434C12.7471 1.16874 12.5931 1.32969 12.5975 1.52371C12.5975 1.52634 12.5975 1.52876 12.5977 1.53129L12.6412 2.84965C12.1576 2.33285 11.6049 1.88538 10.9987 1.5203C9.90066 0.861451 8.66876 0.513184 7.43631 0.513184C5.46756 0.513184 3.6524 1.32496 2.3259 2.79889C1.15081 4.10462 0.449219 5.8621 0.449219 7.50028C0.449219 7.69441 0.606543 7.85184 0.800782 7.85184C0.99502 7.85184 1.15234 7.69441 1.15234 7.50028C1.15234 6.03107 1.78637 4.44937 2.84853 3.26933C4.0401 1.94558 5.66927 1.21631 7.43631 1.21631Z" fill="#0F0F0F"/>
<path d="M14.1604 7.14893C13.9661 7.14893 13.8088 7.30625 13.8088 7.50049C13.8088 8.96958 13.1748 10.5514 12.1126 11.7315C10.9211 13.0553 9.29189 13.7843 7.52484 13.7843C6.41984 13.7843 5.31307 13.4709 4.32419 12.8774C3.69698 12.4999 3.13338 12.0256 2.6546 11.4719L4.30661 11.5264C4.50063 11.5327 4.66312 11.3805 4.66949 11.1865C4.67586 10.9925 4.52381 10.83 4.32968 10.8235L2.04398 10.7481C1.91269 10.6941 1.76174 10.7244 1.66132 10.8248C1.56102 10.9254 1.53102 11.0762 1.5853 11.2075L1.66055 13.4926C1.66495 13.6869 1.8259 13.8408 2.02003 13.8364C2.21404 13.8321 2.36807 13.6712 2.36368 13.477C2.36368 13.4745 2.36368 13.4721 2.36346 13.4695L2.31995 12.1511C2.80357 12.668 3.35629 13.1153 3.96241 13.4806C5.0605 14.1395 6.2924 14.4877 7.52484 14.4877C9.4936 14.4877 11.3088 13.676 12.6353 12.2021C13.8104 10.8962 14.5119 9.13877 14.5119 7.50049C14.5119 7.30625 14.3546 7.14893 14.1604 7.14893Z" fill="#0F0F0F"/>
</g>
<defs>
<clipPath id="clip0_318_4821">
<rect width="15" height="15" fill="white"/>
</clipPath>
</defs>
</svg>
