<svg width="13" height="13" viewBox="0 0 13 13" fill="none" xmlns="http://www.w3.org/2000/svg">
<g clip-path="url(#clip0_318_556)">
<path d="M11.7748 2.22513C10.1413 0.591605 7.48348 0.59163 5.84995 2.22516C4.73416 3.34095 4.34659 4.98527 4.82973 6.4771L0.111592 11.1953C0.040168 11.2667 0 11.3634 0 11.4645V13.6191C0 13.8297 0.170346 14 0.380859 14H2.53546C2.63661 14 2.73333 13.9598 2.80472 13.8884L3.34328 13.3495C3.42547 13.2673 3.46564 13.152 3.45226 13.0363L3.38531 12.4576L4.18719 12.3821C4.36945 12.365 4.51338 12.221 4.5305 12.0388L4.60601 11.2369L5.18474 11.3042C5.29222 11.3187 5.40046 11.2826 5.48191 11.2105C5.56298 11.1379 5.60947 11.0345 5.60947 10.9259V10.2168H6.30573C6.40689 10.2168 6.5036 10.1766 6.575 10.1052L7.5517 9.14143C9.04315 9.62495 10.659 9.26658 11.7748 8.15003C13.4084 6.51653 13.4084 3.85866 11.7748 2.22513ZM10.6974 4.91832C10.2518 5.3639 9.52727 5.3639 9.08169 4.91832C8.63611 4.47274 8.63611 3.74822 9.08169 3.30264C9.52727 2.85706 10.2518 2.85706 10.6974 3.30264C11.143 3.74822 11.1429 4.47274 10.6974 4.91832Z" fill="#D9D9D9"/>
</g>
<defs>
<clipPath id="clip0_318_556">
<rect width="13" height="13" fill="white"/>
</clipPath>
</defs>
</svg>
