<svg width="23" height="21" viewBox="0 0 23 21" fill="none" xmlns="http://www.w3.org/2000/svg">
<path d="M12.9601 0.460938C8.09375 0.460938 4.02837 3.94171 3.1147 8.54233L1.20633 6.15667L0 7.12204L3.08923 10.9836C3.23981 11.1712 3.46379 11.2732 3.6924 11.2732C3.80902 11.2732 3.92716 11.2469 4.03762 11.1921L8.67145 8.87516L7.98024 7.4935L4.57516 9.19567C5.20689 5.13025 8.7201 2.00553 12.9601 2.00553C17.6441 2.00553 21.4554 5.81683 21.4554 10.5009C21.4554 15.1849 17.6441 18.9962 12.9601 18.9962V20.5408C18.4959 20.5408 23 16.0367 23 10.5009C23 4.96503 18.4959 0.460938 12.9601 0.460938Z" fill="#FE6D2C"/>
</svg>
