<svg width="19" height="19" viewBox="0 0 19 19" fill="none" xmlns="http://www.w3.org/2000/svg">
<path d="M18.66 17.0712L15.0115 13.4227C16.1173 11.9752 16.7237 10.2195 16.7239 8.36676C16.7239 6.13406 15.8544 4.03485 14.2754 2.45611C12.6966 0.87738 10.5977 0.0078125 8.36473 0.0078125C6.13203 0.0078125 4.03282 0.87738 2.45409 2.45611C-0.805008 5.71548 -0.805008 11.0186 2.45409 14.2774C4.03282 15.8564 6.13203 16.726 8.36473 16.726C10.2174 16.7257 11.9732 16.1193 13.4207 15.0135L17.0692 18.662C17.2886 18.8818 17.5768 18.9916 17.8646 18.9916C18.1524 18.9916 18.4406 18.8818 18.66 18.662C19.0995 18.2229 19.0995 17.5104 18.66 17.0712ZM4.04491 12.6866C1.66307 10.3047 1.66334 6.42904 4.04491 4.04693C5.19874 2.89337 6.73298 2.25781 8.36473 2.25781C9.99675 2.25781 11.5307 2.89337 12.6846 4.04693C13.8384 5.20077 14.4739 6.73501 14.4739 8.36676C14.4739 9.99877 13.8384 11.5327 12.6846 12.6866C11.5307 13.8404 9.99675 14.476 8.36473 14.476C6.73298 14.476 5.19874 13.8404 4.04491 12.6866Z" fill="#FE6D2C"/>
</svg>
