<svg width="25" height="25" viewBox="0 0 25 25" fill="none" xmlns="http://www.w3.org/2000/svg">
<path d="M24.1399 11.1044C22.7318 11.1535 21.3258 10.9602 19.9833 10.5328C19.8592 8.83319 18.7135 7.38007 17.0898 6.86279C18.4323 5.96157 19.0458 4.30135 18.612 2.74371C18.1782 1.18606 16.7949 0.0819833 15.1799 0.00435495C13.5649 -0.0732734 12.082 0.893175 11.5009 2.402C10.544 1.98036 9.45392 1.98036 8.49704 2.402C7.9158 0.89298 6.43266 -0.0734198 4.81745 0.00440377C3.20225 0.0822274 1.8189 1.18675 1.3855 2.74468C0.952096 4.30262 1.56629 5.96284 2.90926 6.86362C1.17873 7.41332 0.0023435 9.0191 0 10.8349V14.5845C0 15.5048 0.746112 16.2509 1.66647 16.2509H4.99947V16.6675C4.99947 17.5879 5.74558 18.334 6.66594 18.334H11.1592C12.1516 20.97 13.9806 23.6447 17.3431 24.9712C17.3933 24.9903 17.4465 25.0001 17.5002 25C17.5525 25.0001 17.6044 24.9903 17.6531 24.9712C24.3499 22.3294 24.9677 14.342 24.9973 11.9568V11.9518C24.9976 11.7198 24.9042 11.4974 24.7382 11.3353C24.578 11.1808 24.3623 11.0976 24.1399 11.1044ZM15.8316 7.50188C17.4035 7.50491 18.7606 8.60328 19.0913 10.1399C18.72 9.94571 18.3782 9.69984 18.0759 9.40959C17.755 9.10078 17.248 9.09893 16.9248 9.40544C16.1994 10.0593 15.3179 10.5153 14.3651 10.7295C13.8441 9.88087 13.0345 9.24876 12.0849 8.94924C12.7237 8.51877 13.2154 7.90282 13.4935 7.18444C13.9675 7.39394 14.48 7.50208 14.9983 7.50188H15.8316ZM14.9984 0.835954C16.6091 0.835954 17.9147 2.14167 17.9147 3.75229C17.9147 5.36291 16.609 6.66862 14.9984 6.66862C14.5496 6.66696 14.1074 6.56068 13.7069 6.35826C13.9107 5.0024 13.3451 3.64551 12.2387 2.83574C12.6274 1.64109 13.7421 0.833367 14.9984 0.835954ZM12.9153 5.83541C12.9153 7.44608 11.6096 8.75175 9.99893 8.75175C8.38831 8.75175 7.08259 7.44603 7.08259 5.83541C7.08259 4.2248 8.38831 2.91908 9.99893 2.91908C11.6088 2.92089 12.9134 4.22548 12.9153 5.83541ZM2.08308 3.75229C2.08103 2.32193 3.11827 1.10199 4.53033 0.873939C5.94238 0.645887 7.31089 1.47744 7.75913 2.83569C6.65276 3.64546 6.08719 5.0024 6.29098 6.35821C5.89043 6.56063 5.44825 6.66692 4.99947 6.66858C3.38953 6.66682 2.08493 5.36217 2.08308 3.75229ZM3.10133 15.4177C3.25126 15.1655 3.33124 14.8778 3.33299 14.5844V10.4182C3.33299 10.1881 3.14644 10.0016 2.91639 10.0016C2.68633 10.0016 2.49978 10.1882 2.49978 10.4182V14.5844C2.49978 15.0446 2.12673 15.4177 1.66652 15.4177C1.20632 15.4177 0.833261 15.0446 0.833261 14.5844V10.8348C0.835311 8.99494 2.32636 7.50393 4.16625 7.50183H4.99951C5.51777 7.50198 6.03031 7.39389 6.50433 7.18439C6.78184 7.9013 7.27188 8.51623 7.90877 8.9467C6.17825 9.49639 5.00186 11.1022 4.99951 12.9179V15.4177H3.10133ZM8.10079 17.5008C8.25073 17.2486 8.3307 16.961 8.33246 16.6675V12.5013C8.33246 12.2712 8.14591 12.0847 7.91585 12.0847C7.68575 12.0847 7.49925 12.2713 7.49925 12.5013V16.6675C7.49925 17.1277 7.12619 17.5008 6.66599 17.5008C6.20578 17.5008 5.83273 17.1277 5.83273 16.6675V12.9179C5.83478 11.0781 7.32583 9.58706 9.16572 9.58496H10.8322C11.8797 9.58359 12.8662 10.078 13.4919 10.9182C12.6223 11.0628 11.741 11.1251 10.8597 11.104C10.6358 11.0937 10.4178 11.1772 10.2581 11.3344C10.091 11.4982 9.99742 11.7228 9.99893 11.9568C10.0278 13.8368 10.3223 15.7033 10.8738 17.5008H8.10079ZM17.4981 24.1351C14.4256 22.8632 12.7641 20.3293 11.8675 17.8441C11.8599 17.7978 11.8443 17.7531 11.8216 17.7121C11.1932 15.8505 10.8593 13.9023 10.8321 11.9377C12.207 11.9735 15.6129 11.8668 17.4869 9.99912C19.3863 11.8664 22.79 11.9793 24.159 11.9351C24.1625 11.9395 24.1641 11.945 24.1636 11.9506C24.1357 14.1903 23.5666 21.6254 17.4981 24.1351Z" fill="#FE6D2C"/>
<path d="M22.4846 12.7264C20.8884 12.6345 19.3341 12.1806 17.9392 11.3991C17.6705 11.2316 17.3298 11.2316 17.061 11.3991C15.6652 12.1812 14.1094 12.6349 12.5119 12.7256C12.2906 12.7446 12.086 12.8512 11.9436 13.0217C11.8013 13.1923 11.7329 13.4126 11.7537 13.6338C12.3161 19.5411 15.3441 22.0495 17.0993 23.0161C17.3465 23.1537 17.6471 23.1537 17.8943 23.0161C19.6524 22.0462 22.6854 19.5382 23.242 13.6326C23.2627 13.4116 23.1944 13.1915 23.0522 13.0211C22.91 12.8506 22.7057 12.744 22.4846 12.7248V12.7264ZM17.4972 22.2854C15.8854 21.3942 13.1089 19.0774 12.5811 13.5576C14.3133 13.4696 16 12.9729 17.5035 12.1082C19.0032 12.9709 20.6855 13.467 22.4134 13.5559C21.8917 19.0732 19.1125 21.3922 17.4972 22.2854Z" fill="#FE6D2C"/>
<path fill-rule="evenodd" clip-rule="evenodd" d="M15.71 17.207C15.5465 17.0491 15.2866 17.0513 15.1259 17.2121C14.9652 17.3728 14.963 17.6326 15.1209 17.7961L16.3707 19.0459C16.4488 19.1241 16.5548 19.168 16.6653 19.168H16.6911C16.8105 19.1607 16.921 19.1024 16.9944 19.008L19.9107 15.2584C20.0021 15.1409 20.0239 14.9835 19.9678 14.8457C19.9117 14.7077 19.7863 14.6102 19.6389 14.5899C19.4914 14.5695 19.3443 14.6293 19.2529 14.7468L16.6282 18.124L15.71 17.207Z" fill="#FE6D2C"/>
</svg>
