<svg width="13" height="15" viewBox="0 0 13 15" fill="none" xmlns="http://www.w3.org/2000/svg">
<path d="M12.439 12.3697L11.7691 3.92877C11.7273 3.38496 11.2674 2.95896 10.7221 2.95896H9.39892V2.89948C9.39892 1.30069 8.09823 0 6.49944 0C4.90065 0 3.59996 1.30069 3.59996 2.89948V2.95896H2.27685C1.73143 2.95896 1.2715 3.38493 1.2299 3.92763L0.559822 12.3708C0.507966 13.0468 0.742488 13.7199 1.20321 14.2173C1.66393 14.7147 2.31705 15 2.99506 15H10.0038C10.6818 15 11.3349 14.7147 11.7957 14.2173C12.2564 13.7198 12.4909 13.0468 12.439 12.3697ZM4.47857 2.89948C4.47857 1.78518 5.38516 0.878613 6.49944 0.878613C7.61372 0.878613 8.52031 1.78521 8.52031 2.89948V2.95896H4.47857V2.89948ZM11.151 13.6203C10.8517 13.9434 10.4443 14.1214 10.0038 14.1214H2.99509C2.55459 14.1214 2.14718 13.9434 1.84783 13.6203C1.5485 13.2971 1.40219 12.8772 1.43583 12.4392L2.10585 3.99595C2.11264 3.90712 2.18776 3.83757 2.27685 3.83757H3.59996V4.91965C3.59996 5.16226 3.79666 5.35896 4.03926 5.35896C4.28187 5.35896 4.47857 5.16226 4.47857 4.91965V3.83757H8.52031V4.91965C8.52031 5.16226 8.71701 5.35896 8.95961 5.35896C9.20222 5.35896 9.39892 5.16226 9.39892 4.91965V3.83757H10.7221C10.8111 3.83757 10.8862 3.90715 10.8931 3.99712L11.563 12.438C11.5967 12.8772 11.4504 13.2971 11.151 13.6203Z" fill="#FE6D2C"/>
<path d="M8.47961 7.44996C8.30811 7.2784 8.02993 7.2784 7.8584 7.44996L5.8968 9.41156L5.14252 8.65728C4.97099 8.48572 4.69281 8.48572 4.52125 8.65728C4.34969 8.82885 4.34969 9.10699 4.52125 9.27855L5.58616 10.3435C5.67194 10.4292 5.78439 10.4722 5.89677 10.4722C6.00915 10.4722 6.12162 10.4293 6.20737 10.3435L8.47958 8.07126C8.65117 7.89967 8.65117 7.62152 8.47961 7.44996Z" fill="#FE6D2C"/>
</svg>
