<svg width="15" height="15" viewBox="0 0 15 15" fill="none" xmlns="http://www.w3.org/2000/svg">
<path d="M7.39219 7.22556C8.38485 7.22556 9.2443 6.86953 9.94673 6.16709C10.6489 5.46477 11.0051 4.60544 11.0051 3.61266C11.0051 2.62023 10.6491 1.76078 9.94662 1.05823C9.24418 0.356025 8.38473 0 7.39219 0C6.39942 0 5.54008 0.356025 4.83776 1.05835C4.13544 1.76067 3.7793 2.62012 3.7793 3.61266C3.7793 4.60544 4.13544 5.46489 4.83776 6.16721C5.54031 6.86942 6.39976 7.22556 7.39219 7.22556ZM5.4594 1.67988C5.9983 1.14097 6.63047 0.879019 7.39219 0.879019C8.15379 0.879019 8.78608 1.14097 9.32509 1.67988C9.86399 2.21889 10.1261 2.85118 10.1261 3.61266C10.1261 4.37438 9.86399 5.00655 9.32509 5.54557C8.78608 6.08458 8.15379 6.34654 7.39219 6.34654C6.6307 6.34654 5.99853 6.08447 5.4594 5.54557C4.92039 5.00667 4.65832 4.37438 4.65832 3.61266C4.65832 2.85118 4.92039 2.21889 5.4594 1.67988Z" fill="#0F0F0F"/>
<path d="M13.7147 11.5343C13.6944 11.242 13.6535 10.9232 13.5932 10.5865C13.5323 10.2473 13.4539 9.92661 13.36 9.63353C13.263 9.3306 13.1313 9.03145 12.9682 8.74478C12.7992 8.44723 12.6005 8.18814 12.3776 7.97494C12.1445 7.75189 11.859 7.57256 11.529 7.44176C11.2001 7.31164 10.8356 7.24572 10.4457 7.24572C10.2926 7.24572 10.1445 7.30855 9.8585 7.49474C9.68249 7.60953 9.47661 7.74228 9.24681 7.88911C9.05032 8.0143 8.78413 8.13161 8.45534 8.23781C8.13456 8.3416 7.80886 8.39425 7.48729 8.39425C7.16594 8.39425 6.84024 8.3416 6.51923 8.23781C6.19079 8.13172 5.92448 8.01442 5.72833 7.88922C5.50071 7.74377 5.29472 7.61101 5.11607 7.49463C4.83032 7.30843 4.68223 7.24561 4.52911 7.24561C4.13909 7.24561 3.77471 7.31164 3.44593 7.44187C3.11611 7.57245 2.83058 7.75178 2.59723 7.97505C2.3743 8.18837 2.17563 8.44735 2.00672 8.74478C1.84387 9.03145 1.71204 9.33049 1.61499 9.63364C1.52126 9.92672 1.44287 10.2473 1.38199 10.5865C1.32156 10.9227 1.28071 11.2416 1.26045 11.5346C1.24054 11.8211 1.23047 12.1192 1.23047 12.4204C1.23047 13.2034 1.47938 13.8373 1.97021 14.3048C2.45498 14.7661 3.09631 15 3.87645 15H11.099C11.8789 15 12.5203 14.7661 13.0052 14.3048C13.4961 13.8376 13.745 13.2035 13.745 12.4203C13.7449 12.118 13.7347 11.8199 13.7147 11.5343ZM12.3991 13.6679C12.0788 13.9728 11.6535 14.121 11.0989 14.121H3.87645C3.32176 14.121 2.8965 13.9728 2.57629 13.668C2.26215 13.369 2.10949 12.9608 2.10949 12.4204C2.10949 12.1393 2.11876 11.8618 2.1373 11.5954C2.15538 11.334 2.19234 11.0469 2.24716 10.7418C2.30129 10.4404 2.37018 10.1577 2.45212 9.90166C2.53074 9.65618 2.63797 9.41311 2.77096 9.17897C2.89787 8.95581 3.0439 8.76435 3.20503 8.61008C3.35575 8.46577 3.54572 8.34767 3.76956 8.25909C3.97659 8.17715 4.20925 8.13229 4.46182 8.12554C4.4926 8.14191 4.54742 8.17315 4.63622 8.23105C4.81693 8.34881 5.02521 8.48317 5.25546 8.63022C5.51501 8.7957 5.84941 8.94516 6.24892 9.07414C6.65736 9.2062 7.07393 9.27327 7.4874 9.27327C7.90087 9.27327 8.31755 9.2062 8.72576 9.07425C9.12562 8.94505 9.4599 8.7957 9.7198 8.62999C9.95543 8.47939 10.1579 8.34893 10.3386 8.23105C10.4274 8.17326 10.4822 8.14191 10.513 8.12554C10.7657 8.13229 10.9983 8.17715 11.2055 8.25909C11.4292 8.34767 11.6192 8.46589 11.7699 8.61008C11.931 8.76423 12.077 8.95569 12.204 9.17908C12.3371 9.41311 12.4444 9.6563 12.5229 9.90155C12.605 10.1579 12.674 10.4406 12.728 10.7417C12.7827 11.0473 12.8198 11.3346 12.8378 11.5955V11.5957C12.8565 11.8611 12.8659 12.1385 12.866 12.4204C12.8659 12.9609 12.7132 13.369 12.3991 13.6679Z" fill="#0F0F0F"/>
</svg>
