<svg width="17" height="16" viewBox="0 0 17 16" fill="none" xmlns="http://www.w3.org/2000/svg">
<path d="M16.8125 12.25V13.7344C16.8125 14.5532 16.1463 15.2188 15.3281 15.2188H2.5625C1.25269 15.2188 0.1875 14.1536 0.1875 12.8438C0.1875 12.8438 0.1875 2.75891 0.1875 2.75C0.1875 1.44019 1.25269 0.375 2.5625 0.375H13.5469C14.0391 0.375 14.4375 0.774 14.4375 1.26562C14.4375 1.75725 14.0391 2.15625 13.5469 2.15625H2.5625C2.23534 2.15625 1.96875 2.42225 1.96875 2.75C1.96875 3.07775 2.23534 3.34375 2.5625 3.34375H15.3281C16.1463 3.34375 16.8125 4.00934 16.8125 4.82812V6.3125H13.8438C12.2068 6.3125 10.875 7.64428 10.875 9.28125C10.875 10.9182 12.2068 12.25 13.8438 12.25H16.8125Z" fill="#0D1935"/>
<path d="M16.8125 7.5V11.0625H13.8438C12.8599 11.0625 12.0625 10.2651 12.0625 9.28125C12.0625 8.29741 12.8599 7.5 13.8438 7.5H16.8125Z" fill="#0D1935"/>
</svg>
