<svg width="22" height="22" viewBox="0 0 22 22" fill="none" xmlns="http://www.w3.org/2000/svg">
<path d="M11.0004 0.5C5.21039 0.5 0.5 5.20983 0.5 11C0.5 16.7901 5.21039 21.5001 11.0004 21.5001C16.7904 21.5001 21.5 16.7901 21.5 11C21.5 5.20983 16.7904 0.5 11.0004 0.5ZM11.7499 2.13532C12.574 2.43171 13.3806 3.214 14.052 4.46096C14.2048 4.74468 14.3477 5.0512 14.4806 5.37568C13.6297 5.5605 12.7116 5.6822 11.7499 5.72395V2.13532ZM10.2501 2.13549V5.72222C9.28887 5.68027 8.37036 5.56007 7.51968 5.37533C7.65257 5.05096 7.79541 4.74459 7.94814 4.46096C8.61941 3.21425 9.426 2.43202 10.2501 2.13549ZM14.8159 2.84398C15.6968 3.2558 16.4997 3.8056 17.1964 4.4665C16.8097 4.6533 16.3873 4.82304 15.9374 4.97481C15.7668 4.54315 15.5787 4.13312 15.3724 3.75005C15.2006 3.43098 15.0146 3.12795 14.8159 2.84398ZM7.18409 2.84433C6.98544 3.12822 6.79951 3.43109 6.62776 3.75005C6.42145 4.13321 6.23307 4.54321 6.06249 4.97498C5.6127 4.82333 5.19032 4.65353 4.80377 4.46667C5.50041 3.8058 6.30322 3.25617 7.18409 2.84433ZM18.2253 5.62586C19.2007 6.93668 19.8268 8.52339 19.9686 10.2498H16.9839C16.9305 8.88007 16.7323 7.5831 16.4107 6.40511C17.0605 6.18712 17.6915 5.88304 18.2253 5.62586ZM3.77459 5.62638C4.32887 5.92342 4.93716 6.18408 5.5895 6.40476C5.26779 7.58287 5.06949 8.8799 5.01617 10.2498H2.03161C2.17335 8.52364 2.79936 6.93709 3.77459 5.62638ZM7.03718 6.81134C8.04146 7.03981 9.12123 7.18165 10.2501 7.22536V10.2498H6.51819C6.61417 9.05497 6.76639 7.82767 7.03718 6.81134ZM14.963 6.81151C15.2452 7.85189 15.4285 9.01534 15.482 10.2498H11.7499V7.22536C12.8789 7.18171 13.9587 7.03993 14.963 6.81151ZM5.01617 11.7497C5.06926 13.1145 5.2661 14.407 5.58569 15.5815C4.93174 15.8029 4.32271 16.0651 3.76742 16.3634C2.79629 15.0545 2.03161 13.4858 2.03161 11.7538L5.01617 11.7497ZM6.51819 11.7497H10.2501V14.7597C9.11987 14.8037 8.03869 14.9455 7.03336 15.1746C6.75316 14.1376 6.57143 12.9789 6.51819 11.7497ZM11.7499 11.7497H15.482C15.4287 12.9789 15.247 14.1376 14.9668 15.1746C13.9615 14.9456 12.8803 14.8035 11.7499 14.7597V11.7497ZM16.9839 11.7497H19.9686C19.8273 13.4718 19.2039 15.0548 18.2327 16.3637C17.6774 16.0654 17.0682 15.8031 16.4142 15.5815C16.7338 14.4069 16.9308 13.1146 16.9839 11.7497ZM11.7499 16.2611C12.7137 16.3031 13.6337 16.4253 14.4862 16.6108C14.3517 16.9402 14.2069 17.251 14.052 17.5387C13.3806 18.7856 12.574 19.5679 11.7499 19.8643V16.2611ZM10.2501 16.2613V19.8641C9.426 19.5676 8.61941 18.7853 7.94814 17.5387C7.79328 17.251 7.64843 16.9402 7.51397 16.6108C8.36645 16.4251 9.28646 16.3032 10.2501 16.2613ZM15.9424 17.012C16.3943 17.1648 16.8187 17.3355 17.2066 17.5236C16.5076 18.1888 15.701 18.742 14.8158 19.1558C15.0145 18.8717 15.2006 18.5687 15.3724 18.2496C15.5807 17.8627 15.7705 17.4484 15.9424 17.012ZM6.0578 17.0122C6.22964 17.4485 6.4195 17.8628 6.62776 18.2496C6.79957 18.5686 6.98552 18.8715 7.18424 19.1555C6.29914 18.7417 5.49277 18.1886 4.79381 17.5236C5.18174 17.3357 5.60591 17.1648 6.0578 17.0122Z" fill="#FE6D2C"/>
</svg>
