<svg width="15" height="15" viewBox="0 0 15 15" fill="none" xmlns="http://www.w3.org/2000/svg">
<g clip-path="url(#clip0_318_459)">
<path d="M7.5 0C3.35801 0 0 3.35801 0 7.5C0 11.642 3.35801 15 7.5 15C11.642 15 15 11.642 15 7.5C15 3.35801 11.642 0 7.5 0ZM10.57 3.68262C10.7341 3.39785 11.122 3.34805 11.3563 3.57832C12.0577 4.26855 12.5754 5.14541 12.8276 6.12832C12.9085 6.44385 12.6674 6.75 12.3422 6.75H10.6632C10.5146 6.12187 10.1842 5.56436 9.73037 5.13662L10.57 3.68262ZM4.42998 11.3174C4.26592 11.6021 3.87803 11.652 3.64365 11.4217C2.94229 10.7314 2.42461 9.85459 2.17236 8.87168C2.0915 8.55615 2.33262 8.25 2.65781 8.25H4.33682C4.48535 8.87813 4.81582 9.43565 5.26963 9.86338L4.42998 11.3174ZM4.33682 6.75H2.65781C2.33262 6.75 2.0915 6.44385 2.17236 6.12832C2.42461 5.14541 2.94229 4.26855 3.64365 3.57832C3.87803 3.34805 4.26592 3.39785 4.42998 3.68262L5.26963 5.13662C4.81582 5.56436 4.48535 6.12187 4.33682 6.75ZM8.96865 12.8016C8.01404 13.0661 6.98625 13.0662 6.03135 12.8016C5.71436 12.714 5.56377 12.353 5.72813 12.0686L6.56807 10.614C7.16171 10.792 7.81664 10.7985 8.43193 10.614L9.27188 12.0686C9.43623 12.353 9.28564 12.714 8.96865 12.8016ZM6 8.31709C6.23936 8.1791 6.54492 8.26084 6.6832 8.5002C6.82119 8.73926 6.73916 9.04512 6.5001 9.18311C6.26103 9.32109 5.95518 9.23936 5.81719 9C5.67891 8.76094 5.76094 8.45508 6 8.31709ZM5.81719 6C5.95518 5.76094 6.26103 5.67891 6.5001 5.81719C6.73916 5.95518 6.82119 6.26103 6.6832 6.5001C6.54492 6.73916 6.23936 6.82119 6 6.6832C5.76094 6.54492 5.67891 6.23936 5.81719 6ZM6.78135 7.5C6.78135 7.10361 7.10361 6.78135 7.5 6.78135C7.89639 6.78135 8.21865 7.10361 8.21865 7.5C8.21865 7.89639 7.89639 8.21865 7.5 8.21865C7.10361 8.21865 6.78135 7.89639 6.78135 7.5ZM8.31709 8.4999C8.45508 8.26084 8.76094 8.17881 9 8.31709C9.23906 8.45508 9.32109 8.76094 9.18311 9C9.04482 9.23906 8.73926 9.32109 8.4999 9.18311C8.26084 9.04482 8.17881 8.73926 8.31709 8.4999ZM8.5002 5.81689C8.73926 5.67891 9.04512 5.76064 9.18311 6C9.32109 6.23906 9.23936 6.54492 9 6.68291C8.76094 6.8209 8.45508 6.73916 8.31709 6.4998C8.1791 6.26074 8.26084 5.95488 8.5002 5.81689ZM9.27188 2.93145L8.43193 4.38604C7.83826 4.208 7.18336 4.20152 6.56807 4.38604L5.72813 2.93145C5.56377 2.64697 5.71436 2.28604 6.03135 2.19844C6.98596 1.93389 8.01375 1.93383 8.96865 2.19844C9.28564 2.28604 9.43623 2.64697 9.27188 2.93145ZM12.8276 8.87168C12.5754 9.85459 12.0577 10.7314 11.3563 11.4217C11.122 11.652 10.7341 11.6021 10.57 11.3174L9.73037 9.86338C10.1842 9.43565 10.5146 8.87813 10.6632 8.25H12.3422C12.6674 8.25 12.9085 8.55615 12.8276 8.87168Z" fill="#0F0F0F"/>
</g>
<defs>
<clipPath id="clip0_318_459">
<rect width="15" height="15" fill="white"/>
</clipPath>
</defs>
</svg>
