<svg width="13" height="13" viewBox="0 0 13 13" fill="none" xmlns="http://www.w3.org/2000/svg">
<path d="M6.84075 5.30667L6.31543 4.24219L5.7901 5.30667C5.73604 5.41618 5.63157 5.49211 5.51067 5.50966L4.33594 5.68036L5.186 6.50894C5.27343 6.59422 5.31336 6.71701 5.29273 6.83743L5.09204 8.00742L6.14276 7.45501C6.19679 7.42658 6.25612 7.4124 6.31543 7.4124C6.37473 7.4124 6.43406 7.42662 6.4881 7.45501L7.53881 8.00742L7.33812 6.83743C7.31749 6.71705 7.35742 6.59422 7.44485 6.50894L8.29491 5.68036L7.12018 5.50966C6.99931 5.49211 6.89481 5.41618 6.84075 5.30667Z" fill="#0F0F0F"/>
<path d="M11.6543 6.45215C11.6225 6.35437 11.6225 6.25098 11.6543 6.15316L11.955 5.22766C12.1197 4.72096 11.9407 4.17011 11.5096 3.85691L10.7224 3.2849C10.6392 3.22445 10.5784 3.14081 10.5466 3.04299L10.2459 2.11748C10.0812 1.61079 9.6126 1.27035 9.07982 1.27035H8.10666C8.00383 1.27035 7.90549 1.2384 7.82229 1.17794L7.03498 0.605941C6.60396 0.292811 6.02475 0.292811 5.59373 0.605941L4.80645 1.17794C4.72326 1.2384 4.62492 1.27035 4.52209 1.27035H3.54893C3.01619 1.27035 2.54757 1.61079 2.38288 2.11752L2.08215 3.04306C2.05038 3.14085 1.9896 3.22449 1.9064 3.28494L1.11912 3.85695C0.688133 4.17011 0.509117 4.72096 0.673772 5.22766L0.974506 6.1532C1.00631 6.25098 1.00631 6.35437 0.974506 6.45219L0.673772 7.37774C0.509117 7.88443 0.688133 8.43528 1.11916 8.74848L1.90647 9.32052C1.98967 9.38094 2.05042 9.46458 2.08218 9.56244L2.38292 10.4879C2.54761 10.9946 3.01619 11.3351 3.54897 11.3351H4.52212C4.62495 11.3351 4.72329 11.367 4.80649 11.4275L5.5938 11.9995C5.80937 12.1561 6.06183 12.2344 6.31443 12.2344C6.56696 12.2344 6.81956 12.1561 7.03506 11.9995L7.82241 11.4275C7.90557 11.367 8.00391 11.3351 8.10674 11.3351H9.07989C9.61264 11.3351 10.0813 10.9946 10.2459 10.4879L10.5467 9.56237C10.5784 9.46458 10.6392 9.38094 10.7224 9.32049L11.5097 8.74845C11.9407 8.43528 12.1197 7.88443 11.9551 7.3777L11.6543 6.45215ZM9.35042 5.68521L8.10165 6.90244L8.39645 8.62124C8.42035 8.76043 8.36309 8.90115 8.24879 8.9842C8.18415 9.03118 8.10755 9.05508 8.03063 9.05508C7.97155 9.05508 7.91228 9.04102 7.85799 9.01248L6.31439 8.20093L4.77079 9.01244C4.64581 9.07813 4.49425 9.06725 4.37999 8.9842C4.26573 8.90119 4.20847 8.76047 4.23234 8.62124L4.52713 6.90244L3.27837 5.68521C3.17721 5.58661 3.14084 5.43914 3.18448 5.30481C3.22816 5.17047 3.34427 5.07258 3.48403 5.05224L5.20983 4.80145L5.9816 3.23763C6.04413 3.11097 6.17312 3.03078 6.31439 3.03078C6.45567 3.03078 6.58466 3.11097 6.64719 3.23763L7.41895 4.80145L9.14476 5.05224C9.28455 5.07254 9.40067 5.17047 9.44431 5.30481C9.48795 5.43914 9.45154 5.58661 9.35042 5.68521Z" fill="#0F0F0F"/>
</svg>
