<svg width="15" height="15" viewBox="0 0 15 15" fill="none" xmlns="http://www.w3.org/2000/svg">
<path d="M0.289359 5.52738L7.16422 9.90228C7.26673 9.96728 7.38359 9.99977 7.49984 9.99977C7.6167 9.99977 7.73295 9.96728 7.83546 9.90228L14.7103 5.52738C14.8903 5.41239 14.9997 5.21364 14.9997 4.9999C14.9997 4.78615 14.8903 4.58741 14.7103 4.47303L7.83543 0.0974906C7.63044 -0.0324969 7.36918 -0.0324969 7.16419 0.0974906L0.289359 4.47303C0.109363 4.58741 5.88288e-09 4.78615 5.88288e-09 4.9999C-2.92904e-05 5.21364 0.109363 5.41239 0.289359 5.52738Z" fill="#0F0F0F"/>
<path d="M14.7103 9.47404L12.7747 8.24219L8.50669 10.9584C8.20357 11.1502 7.85608 11.2515 7.49984 11.2515C7.1436 11.2515 6.79612 11.1502 6.49486 10.959L2.22493 8.24219L0.289359 9.47404C0.109363 9.58902 0 9.78777 0 10.0015C0 10.2153 0.109363 10.414 0.289359 10.5284L7.16422 14.9039C7.26673 14.9689 7.38298 15.0014 7.49984 15.0014C7.61609 15.0014 7.73295 14.9689 7.83546 14.9039L14.7103 10.5284C14.8903 10.414 14.9997 10.2153 14.9997 10.0015C14.9997 9.78777 14.8903 9.58902 14.7103 9.47404Z" fill="#0F0F0F"/>
</svg>
