<svg width="11" height="16" viewBox="0 0 11 16" fill="none" xmlns="http://www.w3.org/2000/svg">
<path d="M7.00261 5H3.0026C2.82585 5.00018 2.65638 5.07047 2.53139 5.19546C2.40641 5.32044 2.33611 5.48991 2.33594 5.66667V6.66667C2.33594 6.75507 2.37106 6.83986 2.43357 6.90237C2.49608 6.96488 2.58087 7 2.66927 7H7.33594C7.42434 7 7.50913 6.96488 7.57164 6.90237C7.63415 6.83986 7.66927 6.75507 7.66927 6.66667V5.66667C7.66907 5.48992 7.59877 5.32047 7.47379 5.19549C7.34881 5.07051 7.17935 5.0002 7.00261 5Z" fill="#0F0F0F"/>
<path d="M6.33333 3.66406H3.66667C3.48991 3.66424 3.32044 3.73453 3.19546 3.85952C3.07047 3.98451 3.00018 4.15397 3 4.33073V5.33073C3 5.41913 3.03512 5.50392 3.09763 5.56643C3.16014 5.62894 3.24493 5.66406 3.33333 5.66406H6.66667C6.75507 5.66406 6.83986 5.62894 6.90237 5.56643C6.96488 5.50392 7 5.41913 7 5.33073V4.33073C6.9998 4.15398 6.92949 3.98453 6.80451 3.85955C6.67953 3.73457 6.51008 3.66427 6.33333 3.66406Z" fill="#0F0F0F"/>
<path d="M6.14133 2.9987H3.86133L4.34133 0.598698C4.35657 0.523344 4.39744 0.455596 4.457 0.406979C4.51656 0.358362 4.59111 0.331878 4.66799 0.332032H5.33466C5.41154 0.331878 5.4861 0.358362 5.54566 0.406979C5.60521 0.455596 5.64609 0.523344 5.66133 0.598698L6.14133 2.9987Z" fill="#0F0F0F"/>
<path d="M2.66797 9.33203H7.33463V12.6654H2.66797V9.33203Z" fill="#0F0F0F"/>
<path d="M6.94464 6.33203H3.05797C2.4241 6.33203 1.8162 6.58383 1.36798 7.03205C0.919772 7.48026 0.667969 8.08816 0.667969 8.72203V14.6654C0.668743 14.9303 0.774348 15.1842 0.961717 15.3716C1.14909 15.559 1.40299 15.6646 1.66797 15.6654H8.33464C8.59962 15.6646 8.85352 15.559 9.04089 15.3716C9.22826 15.1842 9.33387 14.9303 9.33464 14.6654V8.72203C9.33464 8.08816 9.08284 7.48026 8.63462 7.03205C8.18641 6.58383 7.57851 6.33203 6.94464 6.33203ZM8.00131 12.6654C8.00079 12.842 7.93038 13.0113 7.80547 13.1362C7.68056 13.2611 7.51129 13.3315 7.33464 13.332H2.66797C2.49132 13.3315 2.32205 13.2611 2.19714 13.1362C2.07223 13.0113 2.00182 12.842 2.0013 12.6654V9.33203C2.00182 9.15538 2.07223 8.98611 2.19714 8.8612C2.32205 8.73629 2.49132 8.66588 2.66797 8.66536H7.33464C7.51129 8.66588 7.68056 8.73629 7.80547 8.8612C7.93038 8.98611 8.00079 9.15538 8.00131 9.33203V12.6654Z" fill="#0F0F0F"/>
<path d="M9.2757 1.30713C9.24339 1.26506 9.20184 1.23098 9.15426 1.20753C9.10668 1.18407 9.05435 1.17188 9.0013 1.17188C8.94826 1.17188 8.89592 1.18407 8.84834 1.20753C8.80076 1.23098 8.75921 1.26506 8.7269 1.30713C8.55014 1.56327 7.66797 2.8721 7.66797 3.4966C7.66797 3.85022 7.80844 4.18936 8.05849 4.43941C8.30854 4.68946 8.64768 4.82993 9.0013 4.82993C9.35492 4.82993 9.69406 4.68946 9.94411 4.43941C10.1942 4.18936 10.3346 3.85022 10.3346 3.4966C10.3346 2.8721 9.45247 1.56327 9.2757 1.30713Z" fill="#0F0F0F"/>
</svg>
