<svg width="15" height="15" viewBox="0 0 15 15" fill="none" xmlns="http://www.w3.org/2000/svg">
<path d="M14.5782 6.83203H11.5815L10.2422 8.17131H12.5902C12.7146 8.17213 12.8369 8.20213 12.9475 8.25891L14.5782 6.83203Z" fill="#0F0F0F"/>
<path d="M7.76758 12.9922H8.83929V13.5279H7.76758V12.9922Z" fill="#0F0F0F"/>
<path d="M13.3934 8.9727V13.9029L14.9202 12.3761C14.9716 12.3266 15.0006 12.2583 15.0006 12.187V7.17188L13.3203 8.64214C13.3682 8.74579 13.3931 8.85853 13.3934 8.9727Z" fill="#0F0F0F"/>
<path d="M6.08036 14.5233L6.08519 14.5187C6.13371 14.4687 6.16081 14.4017 6.16072 14.332V8.97489C6.16072 8.82697 6.04081 8.70703 5.89286 8.70703H0.267861C0.119941 8.70703 0 8.82694 0 8.97489V14.332C0 14.48 0.119912 14.5999 0.267861 14.5999H5.89286C5.96303 14.6001 6.03041 14.5725 6.08036 14.5233ZM2.67858 13.5284C2.67858 13.8243 2.43873 14.0642 2.14286 14.0642H1.07142C0.775547 14.0642 0.535693 13.8243 0.535693 13.5284V12.9927C0.535693 12.6969 0.775547 12.457 1.07142 12.457H2.14283C2.4387 12.457 2.67855 12.6969 2.67855 12.9927V13.5284H2.67858ZM5.35714 14.0642H4.55355C4.40563 14.0642 4.28569 13.9443 4.28569 13.7963C4.28569 13.6484 4.4056 13.5284 4.55355 13.5284H5.35714C5.50506 13.5284 5.625 13.6484 5.625 13.7963C5.625 13.9443 5.50509 14.0642 5.35714 14.0642ZM5.35714 12.9928H4.55355C4.40563 12.9928 4.28569 12.8728 4.28569 12.7249C4.28569 12.577 4.4056 12.457 4.55355 12.457H5.35714C5.50506 12.457 5.625 12.5769 5.625 12.7249C5.625 12.8728 5.50509 12.9928 5.35714 12.9928Z" fill="#0F0F0F"/>
<path d="M1.07031 12.9922H2.14202V13.5279H1.07031V12.9922Z" fill="#0F0F0F"/>
<path d="M12.7727 14.5246L12.7757 14.5195L12.7808 14.5147C12.8282 14.4656 12.8552 14.4003 12.856 14.332V8.97489C12.856 8.82697 12.7361 8.70703 12.5882 8.70703H6.96317C6.81525 8.70703 6.69531 8.82694 6.69531 8.97489V14.332C6.69531 14.48 6.81522 14.5999 6.96317 14.5999H12.5882C12.6571 14.5995 12.7232 14.5725 12.7727 14.5246ZM9.37387 13.5284C9.37387 13.8243 9.13401 14.0642 8.83814 14.0642H7.76673C7.47086 14.0642 7.23101 13.8243 7.23101 13.5284V12.9927C7.23101 12.6969 7.47086 12.457 7.76673 12.457H8.83814C9.13401 12.457 9.37387 12.6969 9.37387 12.9927V13.5284ZM12.0525 14.0642H11.2489C11.1009 14.0642 10.981 13.9443 10.981 13.7963C10.981 13.6484 11.1009 13.5284 11.2489 13.5284H12.0525C12.2004 13.5284 12.3203 13.6484 12.3203 13.7963C12.3203 13.9443 12.2004 14.0642 12.0525 14.0642ZM12.0525 12.9928H11.2489C11.1009 12.9928 10.981 12.8728 10.981 12.7249C10.981 12.577 11.1009 12.457 11.2489 12.457H12.0525C12.2004 12.457 12.3203 12.5769 12.3203 12.7249C12.3203 12.8728 12.2004 12.9928 12.0525 12.9928Z" fill="#0F0F0F"/>
<path d="M9.73163 1.82922L11.3624 0.402344H9.19834L7.47656 1.74162H9.3743C9.49863 1.74244 9.62101 1.77247 9.73163 1.82922Z" fill="#0F0F0F"/>
<path d="M6.24214 0.479484C6.23057 0.49135 6.21794 0.502102 6.20438 0.511623L4.45312 1.74162H6.60401L8.32579 0.402346H6.42803C6.35824 0.402082 6.29124 0.429885 6.24214 0.479484Z" fill="#0F0F0F"/>
<path d="M11.7054 5.94475C11.7564 5.89565 11.7854 5.82804 11.7857 5.75726V0.742188L10.1055 2.21245C10.1533 2.31607 10.1783 2.42884 10.1786 2.54298V7.47396L11.7054 5.94475Z" fill="#0F0F0F"/>
<path d="M2.76167 6.90917C2.7501 6.92104 2.73747 6.93179 2.72391 6.94131L0.972656 8.17131H2.99687C2.96514 8.08553 2.94847 7.99491 2.94759 7.90345V6.83203C2.87777 6.83177 2.81077 6.85954 2.76167 6.90917Z" fill="#0F0F0F"/>
<path d="M4.55469 6.5625H5.6264V7.09822H4.55469V6.5625Z" fill="#0F0F0F"/>
<path d="M3.75028 8.1702H9.37528C9.44539 8.17044 9.51277 8.14302 9.56278 8.09386L9.56814 8.0885C9.61648 8.0386 9.64338 7.97181 9.64314 7.90234V2.54521C9.64314 2.39729 9.52323 2.27734 9.37528 2.27734H3.75028C3.60236 2.27734 3.48242 2.39726 3.48242 2.54521V7.90234C3.48242 8.05029 3.60236 8.1702 3.75028 8.1702ZM8.03601 6.02734H8.83959C8.98751 6.02734 9.10745 6.14726 9.10745 6.29521C9.10745 6.44312 8.98754 6.56307 8.83959 6.56307H8.03601C7.88809 6.56307 7.76814 6.44315 7.76814 6.29521C7.76814 6.14728 7.88806 6.02734 8.03601 6.02734ZM8.03601 7.09879H8.83959C8.98751 7.09879 9.10745 7.2187 9.10745 7.36665C9.10745 7.5146 8.98754 7.63451 8.83959 7.63451H8.03601C7.88809 7.63451 7.76814 7.5146 7.76814 7.36665C7.76814 7.2187 7.88806 7.09879 8.03601 7.09879ZM4.01814 6.56307C4.01814 6.2672 4.258 6.02734 4.55387 6.02734H5.62528C5.92115 6.02734 6.16101 6.2672 6.16101 6.56307V7.09879C6.16101 7.39466 5.92115 7.63451 5.62528 7.63451H4.55387C4.258 7.63451 4.01814 7.39466 4.01814 7.09879V6.56307Z" fill="#0F0F0F"/>
</svg>
