<svg width="19" height="19" viewBox="0 0 19 19" fill="none" xmlns="http://www.w3.org/2000/svg">
<path d="M7.41528 13.8291L5.89825 14.5683L4.84375 10.6739L6.32694 9.93234C6.88506 9.65328 7.50019 9.50781 8.12422 9.50781H11.7942C12.2799 9.50781 12.702 9.91394 12.702 10.4157C12.702 10.8746 12.3309 11.2819 11.8708 11.3193L10.6447 11.4209C9.86213 11.4868 9.9595 12.6689 10.7427 12.6048L11.9682 12.5033C12.9176 12.4249 13.6847 11.7029 13.8533 10.7921L16.1648 10.158C16.581 10.044 17.0144 10.269 17.1605 10.6751C17.3042 11.0741 17.1219 11.5177 16.7389 11.6999L11.812 14.3677C11.2693 14.6616 10.6334 14.7328 10.0397 14.566L7.41528 13.8291Z" fill="#0F0F0F"/>
<path d="M4.79215 15.9047L1.1875 17.8118V11.5774L3.25256 10.6512C3.41881 10.5764 3.61297 10.6684 3.66047 10.8442L4.9394 15.5645C4.97621 15.6987 4.91446 15.84 4.79215 15.9047Z" fill="#0F0F0F"/>
<path d="M11.9445 0.857858L11.4445 1.53948C11.4047 1.59351 11.3388 1.61845 11.2723 1.60598C10.8793 1.53236 10.4957 1.53236 10.1021 1.60598C10.0362 1.61845 9.97025 1.59351 9.93047 1.53948L9.43053 0.857858C9.37709 0.784827 9.27675 0.763452 9.19778 0.809171L8.02097 1.48842C7.942 1.53414 7.91053 1.63152 7.94675 1.71464L8.28816 2.49067C8.31547 2.55242 8.30359 2.62189 8.25966 2.67295C8.00613 2.96864 7.80484 3.30945 7.67184 3.68352C7.64928 3.74645 7.59525 3.79217 7.52875 3.7993L6.68978 3.89133C6.59953 3.90142 6.53125 3.97742 6.53125 4.06886V5.42795C6.53125 5.5188 6.59953 5.59539 6.68978 5.60489L7.52875 5.69692C7.59525 5.70405 7.64987 5.74977 7.67184 5.8127C7.80425 6.18677 8.00613 6.52817 8.25966 6.82327C8.30359 6.87433 8.31547 6.94439 8.28816 7.00555L7.94675 7.78158C7.90994 7.86471 7.942 7.96208 8.02097 8.0078L9.19778 8.68764C9.27675 8.73336 9.3765 8.71199 9.43053 8.63896L9.93047 7.95733C9.97025 7.9033 10.0362 7.87836 10.1021 7.89083C10.4832 7.96267 10.8674 7.96683 11.2723 7.89083C11.3383 7.87836 11.4042 7.9033 11.4439 7.95733L11.9439 8.63896C11.9973 8.71199 12.0977 8.73336 12.1766 8.68764L13.3534 8.00839C13.4324 7.96267 13.4639 7.8653 13.4277 7.78217L13.0863 7.00614C13.0589 6.94439 13.0708 6.87492 13.1147 6.82386C13.3683 6.52817 13.5696 6.18736 13.7026 5.8133C13.7251 5.75036 13.7792 5.70464 13.8457 5.69752L14.6846 5.60549C14.7755 5.5948 14.8438 5.5188 14.8438 5.42736V4.06827C14.8438 3.97742 14.7755 3.90083 14.6852 3.89133L13.8462 3.79989C13.7797 3.79277 13.7251 3.74705 13.7032 3.68411C13.5708 3.31005 13.3689 2.96864 13.1153 2.67355C13.0714 2.62248 13.0595 2.55242 13.0868 2.49127L13.4282 1.71523C13.4651 1.63211 13.433 1.53473 13.354 1.48901L12.1772 0.809171C12.0983 0.763452 11.9979 0.784827 11.9445 0.857858ZM11.973 5.4903C11.5633 6.20042 10.6554 6.44327 9.94531 6.03358C9.23519 5.62389 8.99234 4.71605 9.40203 4.00592C9.81172 3.2958 10.7196 3.05295 11.4297 3.46264C12.1398 3.87233 12.3827 4.78017 11.973 5.4903Z" fill="#0F0F0F"/>
</svg>
