<svg width="15" height="15" viewBox="0 0 15 15" fill="none" xmlns="http://www.w3.org/2000/svg">
<g clip-path="url(#clip0_318_6565)">
<path d="M4.0625 11.875H2.8125C2.64 11.875 2.5 11.735 2.5 11.5625C2.5 11.39 2.64 11.25 2.8125 11.25H4.0625C4.235 11.25 4.375 11.39 4.375 11.5625C4.375 11.735 4.235 11.875 4.0625 11.875Z" fill="#E0E0E0"/>
<path d="M14.2191 11.875H13.4378C13.2653 11.875 13.1253 11.735 13.1253 11.5625C13.1253 11.39 13.2653 11.25 13.4378 11.25H13.9597L14.381 9.00501C14.3753 7.85625 13.3941 6.875 12.1878 6.875H10.136L9.14159 11.25H10.9378C11.1103 11.25 11.2503 11.39 11.2503 11.5625C11.2503 11.735 11.1103 11.875 10.9378 11.875H8.75034C8.65534 11.875 8.56534 11.8319 8.50597 11.7575C8.44659 11.6838 8.42409 11.5863 8.44534 11.4938L9.58159 6.49375C9.61409 6.35063 9.74034 6.25 9.88659 6.25H12.1878C13.7385 6.25 15.0003 7.51188 15.0003 9.06251L14.526 11.62C14.4985 11.7681 14.3697 11.875 14.2191 11.875Z" fill="#E0E0E0"/>
<path d="M12.1875 13.125C11.3263 13.125 10.625 12.4244 10.625 11.5625C10.625 10.7006 11.3263 10 12.1875 10C13.0488 10 13.75 10.7006 13.75 11.5625C13.75 12.4244 13.0488 13.125 12.1875 13.125ZM12.1875 10.625C11.6706 10.625 11.25 11.0456 11.25 11.5625C11.25 12.0794 11.6706 12.5 12.1875 12.5C12.7044 12.5 13.125 12.0794 13.125 11.5625C13.125 11.0456 12.7044 10.625 12.1875 10.625Z" fill="#E0E0E0"/>
<path d="M5.3125 13.125C4.45125 13.125 3.75 12.4244 3.75 11.5625C3.75 10.7006 4.45125 10 5.3125 10C6.17375 10 6.875 10.7006 6.875 11.5625C6.875 12.4244 6.17375 13.125 5.3125 13.125ZM5.3125 10.625C4.79562 10.625 4.375 11.0456 4.375 11.5625C4.375 12.0794 4.79562 12.5 5.3125 12.5C5.82938 12.5 6.25 12.0794 6.25 11.5625C6.25 11.0456 5.82938 10.625 5.3125 10.625Z" fill="#E0E0E0"/>
<path d="M4.0625 6.25001H1.5625C1.39 6.25001 1.25 6.11 1.25 5.9375C1.25 5.765 1.39 5.625 1.5625 5.625H4.0625C4.235 5.625 4.375 5.765 4.375 5.9375C4.375 6.11 4.235 6.25001 4.0625 6.25001Z" fill="#E0E0E0"/>
<path d="M4.0625 8.12499H0.9375C0.765 8.12499 0.625 7.98499 0.625 7.8125C0.625 7.64 0.765 7.5 0.9375 7.5H4.0625C4.235 7.5 4.375 7.64 4.375 7.8125C4.375 7.98499 4.235 8.12499 4.0625 8.12499Z" fill="#E0E0E0"/>
<path d="M4.06249 9.99999H0.312499C0.14 9.99999 0 9.85999 0 9.6875C0 9.515 0.14 9.375 0.312499 9.375H4.06249C4.23499 9.375 4.37499 9.515 4.37499 9.6875C4.37499 9.85999 4.23499 9.99999 4.06249 9.99999Z" fill="#E0E0E0"/>
<path d="M8.75001 11.875H6.56251C6.39001 11.875 6.25001 11.735 6.25001 11.5625C6.25001 11.39 6.39001 11.25 6.56251 11.25H8.50064L9.92064 5H2.8125C2.64 5 2.5 4.86 2.5 4.6875C2.5 4.515 2.64 4.375 2.8125 4.375H10.3125C10.4075 4.375 10.4975 4.41813 10.5569 4.4925C10.6163 4.56625 10.6388 4.66375 10.6175 4.75625L9.05501 11.6313C9.02251 11.7744 8.89564 11.875 8.75001 11.875Z" fill="#E0E0E0"/>
</g>
<defs>
<clipPath id="clip0_318_6565">
<rect width="15" height="15" fill="white"/>
</clipPath>
</defs>
</svg>
