<svg width="14" height="14" viewBox="0 0 14 14" fill="none" xmlns="http://www.w3.org/2000/svg">
<path d="M7.55969 0H1.95969C1.80514 0 1.67969 0.125453 1.67969 0.28V13.72C1.67969 13.8745 1.80514 14 1.95969 14H12.0397C12.1942 14 12.3197 13.8745 12.3197 13.72V4.76C12.3197 3.46976 8.84993 0 7.55969 0ZM11.7597 13.44H2.23969V0.56H7.55969C8.54081 0.56 11.7597 3.77888 11.7597 4.76V13.44Z" fill="#E0E0E0"/>
<path d="M11.8718 3.91997H8.39984V0.447969C8.39984 0.292848 8.27439 0.167969 8.11984 0.167969C7.96527 0.167969 7.83984 0.293422 7.83984 0.447969V4.19997C7.83984 4.35455 7.9653 4.47997 8.11984 4.47997H11.8718C12.027 4.47997 12.1518 4.35455 12.1518 4.19997C12.1518 4.04542 12.0264 3.91997 11.8718 3.91997Z" fill="#E0E0E0"/>
</svg>
