<svg width="17" height="12" viewBox="0 0 17 12" fill="none" xmlns="http://www.w3.org/2000/svg">
<path d="M0.648 12C0.541333 12 0.456 11.968 0.392 11.904C0.328 11.84 0.296 11.7547 0.296 11.648V1.168C0.296 1.05067 0.328 0.96 0.392 0.896C0.456 0.831999 0.541333 0.799999 0.648 0.799999H1.032C1.13867 0.799999 1.21867 0.826666 1.272 0.879999C1.32533 0.933332 1.35733 0.970666 1.368 0.992L7.224 10.048V1.168C7.224 1.05067 7.256 0.96 7.32 0.896C7.384 0.831999 7.46933 0.799999 7.576 0.799999H7.864C7.98133 0.799999 8.072 0.831999 8.136 0.896C8.2 0.96 8.232 1.05067 8.232 1.168V11.632C8.232 11.7387 8.2 11.8293 8.136 11.904C8.072 11.968 7.98667 12 7.88 12H7.496C7.38933 12 7.30933 11.9733 7.256 11.92C7.21333 11.8667 7.18133 11.8293 7.16 11.808L1.304 2.784V11.648C1.304 11.7547 1.272 11.84 1.208 11.904C1.144 11.968 1.05333 12 0.936 12H0.648ZM9.384 12C9.27733 12 9.192 11.968 9.128 11.904C9.064 11.84 9.032 11.7547 9.032 11.648V11.424C9.032 11.3173 9.064 11.232 9.128 11.168C9.192 11.104 9.27733 11.072 9.384 11.072H15.784C15.8907 11.072 15.976 11.104 16.04 11.168C16.104 11.232 16.136 11.3173 16.136 11.424V11.648C16.136 11.7547 16.104 11.84 16.04 11.904C15.976 11.968 15.8907 12 15.784 12H9.384ZM12.584 10.592C11.8693 10.592 11.2453 10.432 10.712 10.112C10.1787 9.78133 9.76267 9.31733 9.464 8.72C9.176 8.112 9.032 7.40267 9.032 6.592C9.032 5.77067 9.176 5.06133 9.464 4.464C9.76267 3.86667 10.1787 3.408 10.712 3.088C11.2453 2.75733 11.8693 2.592 12.584 2.592C13.2987 2.592 13.9227 2.75733 14.456 3.088C14.9893 3.408 15.4 3.86667 15.688 4.464C15.9867 5.06133 16.136 5.77067 16.136 6.592C16.136 7.40267 15.9867 8.112 15.688 8.72C15.4 9.31733 14.9893 9.78133 14.456 10.112C13.9227 10.432 13.2987 10.592 12.584 10.592ZM12.584 9.664C13.032 9.664 13.448 9.56267 13.832 9.36C14.2267 9.14667 14.5467 8.816 14.792 8.368C15.0373 7.92 15.16 7.328 15.16 6.592C15.16 5.856 15.0373 5.264 14.792 4.816C14.5467 4.35733 14.2267 4.02667 13.832 3.824C13.448 3.62133 13.032 3.52 12.584 3.52C12.1467 3.52 11.7307 3.62133 11.336 3.824C10.9413 4.02667 10.6213 4.35733 10.376 4.816C10.1307 5.264 10.008 5.856 10.008 6.592C10.008 7.328 10.1307 7.92 10.376 8.368C10.6213 8.816 10.9413 9.14667 11.336 9.36C11.7307 9.56267 12.1467 9.664 12.584 9.664Z" fill="#E0E0E0"/>
</svg>
