<svg width="15" height="15" viewBox="0 0 15 15" fill="none" xmlns="http://www.w3.org/2000/svg">
<g clip-path="url(#clip0_318_6589)">
<path d="M13.5938 4.6875C13.4694 4.6875 13.3502 4.73689 13.2623 4.82479C13.1744 4.9127 13.125 5.03193 13.125 5.15625V12.6562C13.125 12.7806 13.0756 12.8998 12.9877 12.9877C12.8998 13.0756 12.7806 13.125 12.6562 13.125H2.34375C2.21943 13.125 2.1002 13.0756 2.01229 12.9877C1.92439 12.8998 1.875 12.7806 1.875 12.6562V2.34375C1.875 2.21943 1.92439 2.1002 2.01229 2.01229C2.1002 1.92439 2.21943 1.875 2.34375 1.875H9.84375C9.96807 1.875 10.0873 1.82561 10.1752 1.73771C10.2631 1.6498 10.3125 1.53057 10.3125 1.40625C10.3125 1.28193 10.2631 1.1627 10.1752 1.07479C10.0873 0.986886 9.96807 0.9375 9.84375 0.9375H2.34375C1.97079 0.9375 1.6131 1.08566 1.34938 1.34938C1.08566 1.6131 0.9375 1.97079 0.9375 2.34375V12.6562C0.9375 13.0292 1.08566 13.3869 1.34938 13.6506C1.6131 13.9143 1.97079 14.0625 2.34375 14.0625H12.6562C13.0292 14.0625 13.3869 13.9143 13.6506 13.6506C13.9143 13.3869 14.0625 13.0292 14.0625 12.6562V5.15625C14.0625 5.03193 14.0131 4.9127 13.9252 4.82479C13.8373 4.73689 13.7181 4.6875 13.5938 4.6875Z" fill="#E0E0E0"/>
<path d="M4.08281 5.29227C3.99454 5.20401 3.87482 5.15442 3.75 5.15442C3.62517 5.15442 3.50545 5.20401 3.41718 5.29227C3.32892 5.38054 3.27933 5.50026 3.27933 5.62509C3.27933 5.6869 3.2915 5.7481 3.31515 5.8052C3.33881 5.86231 3.37348 5.9142 3.41718 5.9579L7.16718 9.70791C7.21098 9.75135 7.26293 9.78572 7.32004 9.80905C7.37715 9.83238 7.4383 9.8442 7.49999 9.84384H7.5328C7.59877 9.83891 7.66295 9.82008 7.72112 9.78857C7.77929 9.75706 7.83013 9.71359 7.8703 9.66103L13.9641 1.69227C14.031 1.59351 14.0578 1.47294 14.0389 1.35512C14.0201 1.2373 13.957 1.13111 13.8626 1.05818C13.7681 0.98526 13.6494 0.951096 13.5307 0.962655C13.4119 0.974214 13.302 1.03063 13.2234 1.12039L7.45312 8.66728L4.08281 5.29227Z" fill="#E0E0E0"/>
</g>
<defs>
<clipPath id="clip0_318_6589">
<rect width="15" height="15" fill="white"/>
</clipPath>
</defs>
</svg>
