<svg width="15" height="15" viewBox="0 0 15 15" fill="none" xmlns="http://www.w3.org/2000/svg">
<g clip-path="url(#clip0_318_6595)">
<path d="M9.01559 13.6621C8.8919 13.6929 8.7658 13.7203 8.64063 13.7433C8.31342 13.8042 8.09709 14.1189 8.15761 14.4464C8.1875 14.6075 8.27901 14.7417 8.40325 14.8293C8.53129 14.9195 8.69425 14.9602 8.8603 14.9293C9.00937 14.9016 9.15959 14.8691 9.30701 14.8323C9.63013 14.7519 9.82698 14.4245 9.74637 14.1015C9.66595 13.7783 9.3389 13.5816 9.01559 13.6621Z" fill="#E0E0E0"/>
<path d="M13.4748 5.57937C13.517 5.70667 13.5977 5.8106 13.6996 5.8824C13.8506 5.98878 14.0482 6.02457 14.2368 5.96221C14.553 5.85722 14.7243 5.51627 14.6197 5.20025C14.5721 5.05618 14.5192 4.91166 14.4628 4.77095C14.3391 4.46173 13.9884 4.31118 13.679 4.43487C13.3699 4.5585 13.2193 4.90934 13.3431 5.21866C13.3905 5.33693 13.4348 5.45833 13.4748 5.57937Z" fill="#E0E0E0"/>
<path d="M10.9743 12.8012C10.8679 12.8714 10.7581 12.9394 10.6475 13.0031C10.3589 13.1695 10.2601 13.5384 10.4265 13.8268C10.4717 13.9052 10.5318 13.9694 10.6011 14.0184C10.7871 14.1493 11.0398 14.1689 11.2501 14.0477C11.3816 13.9718 11.5123 13.8912 11.639 13.8074C11.9168 13.6239 11.9932 13.2498 11.8096 12.9719C11.6261 12.6939 11.2521 12.6176 10.9743 12.8012Z" fill="#E0E0E0"/>
<path d="M14.9946 7.26392C14.9815 6.93109 14.7011 6.67204 14.3682 6.68504C14.0357 6.69816 13.7765 6.97859 13.7895 7.31129C13.7945 7.43849 13.7958 7.56759 13.7929 7.69467C13.7882 7.90339 13.8903 8.08943 14.0489 8.20126C14.1434 8.26781 14.2581 8.30808 14.3825 8.31092C14.7153 8.3183 14.9911 8.05432 14.9985 7.72133C15.0018 7.5695 15.0006 7.41566 14.9946 7.26392Z" fill="#E0E0E0"/>
<path d="M13.3763 11.2146C13.1094 11.0143 12.7318 11.0687 12.5319 11.3351C12.4554 11.4371 12.3748 11.5379 12.2922 11.6349C12.0765 11.8884 12.107 12.2691 12.3604 12.4849C12.3749 12.4972 12.3895 12.5084 12.4046 12.519C12.6566 12.6967 13.0068 12.6558 13.2105 12.4168C13.309 12.301 13.4051 12.1806 13.4966 12.0588C13.6965 11.7924 13.6424 11.4145 13.3763 11.2146Z" fill="#E0E0E0"/>
<path d="M14.2622 9.0351C13.9444 8.93547 13.606 9.11235 13.5064 9.43012C13.4683 9.55152 13.4261 9.6735 13.3805 9.79296C13.2803 10.0559 13.3763 10.3453 13.5962 10.5004C13.6365 10.5287 13.681 10.5527 13.7292 10.571C14.0404 10.6897 14.3888 10.5336 14.5074 10.2224C14.5615 10.0803 14.6117 9.93519 14.6572 9.79086C14.7566 9.47304 14.5799 9.13473 14.2622 9.0351Z" fill="#E0E0E0"/>
<path d="M6.38431 13.7488C5.84519 13.652 5.32802 13.4871 4.83762 13.2572C4.83182 13.2542 4.82663 13.2508 4.82053 13.248C4.70497 13.1936 4.5896 13.1353 4.47778 13.0745C4.47739 13.074 4.47668 13.0737 4.47607 13.0735C4.2709 12.9605 4.07066 12.8355 3.87613 12.6985C1.03954 10.7003 0.357512 6.76694 2.35582 3.93038C2.79034 3.31381 3.31618 2.79942 3.90241 2.39172C3.90963 2.38669 3.91686 2.38169 3.92401 2.37663C5.9898 0.953243 8.79483 0.857317 10.9884 2.31998L10.5172 3.00069C10.3863 3.19015 10.4669 3.32822 10.6961 3.30759L12.7426 3.12437C12.9722 3.10374 13.1095 2.90515 13.0477 2.68344L12.4982 0.703447C12.4367 0.481478 12.2791 0.454909 12.148 0.644344L11.6758 1.32666C10.0661 0.246063 8.1353 -0.165986 6.21893 0.166323C6.02592 0.199728 5.83561 0.240614 5.64792 0.288206C5.64647 0.288464 5.64531 0.288626 5.64415 0.288884C5.63689 0.290657 5.62954 0.293011 5.62248 0.294978C3.96996 0.719344 2.52816 1.68316 1.49934 3.05831C1.49067 3.06859 1.48174 3.07865 1.47355 3.08984C1.43934 3.13592 1.40538 3.18306 1.37214 3.2302C1.31778 3.30746 1.26419 3.38665 1.21292 3.46584C1.2065 3.47539 1.2016 3.48509 1.19599 3.49473C0.347 4.81033 -0.0625015 6.33129 0.00772639 7.87972C0.00788761 7.88481 0.00759741 7.88994 0.00772639 7.89516C0.0145299 8.04642 0.0265248 8.19977 0.0428081 8.35074C0.0436787 8.36048 0.0458391 8.3697 0.0474835 8.37944C0.064315 8.53125 0.085435 8.68341 0.111907 8.83553C0.380953 10.3877 1.11316 11.7844 2.21033 12.8712C2.21288 12.8738 2.21552 12.8765 2.2181 12.8792C2.219 12.8802 2.22 12.8807 2.22087 12.8816C2.51565 13.1724 2.83629 13.4413 3.18153 13.6845C4.08501 14.3211 5.09106 14.7419 6.1715 14.9358C6.49933 14.9947 6.81248 14.7765 6.8713 14.4488C6.93008 14.1209 6.71204 13.8075 6.38431 13.7488Z" fill="#E0E0E0"/>
<path d="M7.12968 2.68262C6.86002 2.68262 6.6416 2.90123 6.6416 3.1705V8.03122L11.0871 10.3293C11.1587 10.3663 11.2353 10.3838 11.3107 10.3838C11.4872 10.3838 11.6578 10.2876 11.7445 10.1199C11.8681 9.88042 11.7746 9.58626 11.5351 9.4626L7.61722 7.43709V3.1705C7.61719 2.90123 7.39902 2.68262 7.12968 2.68262Z" fill="#E0E0E0"/>
</g>
<defs>
<clipPath id="clip0_318_6595">
<rect width="15" height="15" fill="white"/>
</clipPath>
</defs>
</svg>
