<svg width="129" height="49" viewBox="0 0 129 49" fill="none" xmlns="http://www.w3.org/2000/svg">
<path d="M76.3405 17.3576C76.3405 20.0204 75.4642 22.481 73.984 24.4705C73.4349 25.2095 72.7987 25.8858 72.0935 26.4792C69.5587 26.4195 66.9783 26.3892 64.3613 26.3892C61.7475 26.3892 59.1691 26.4195 56.6343 26.4792C56.0396 25.9778 55.4925 25.4167 55.0072 24.8091C55.0011 24.8061 54.9991 24.8061 55.0011 24.8031C54.919 24.6939 54.84 24.5827 54.761 24.4705C53.4713 22.6286 52.6689 20.4237 52.5352 18.042C53.1765 20.4399 55.3314 22.2798 57.9868 22.4486C61.2673 22.6589 63.9713 20.2246 64.3917 16.9107C64.8122 13.608 67.5162 11.1656 70.7987 11.3759C73.3366 11.5366 75.5128 13.2673 76.2129 15.6157C76.297 16.1859 76.3405 16.7662 76.3405 17.3576Z" fill="url(#paint0_linear_318_1041)"/>
<path d="M76.2111 15.6155C75.5118 13.2662 73.335 11.5356 70.7976 11.3748C67.5146 11.165 64.8107 13.6069 64.3901 16.91C63.9695 20.2241 61.2655 22.6578 57.9852 22.448C55.3304 22.279 53.1754 20.4394 52.5336 18.0411C52.5172 17.804 52.5117 17.5641 52.5117 17.3243C52.5117 14.9178 53.1918 12.6721 54.3745 10.767C56.5185 7.53749 60.1948 5.40625 64.36 5.40625C70.3743 5.40625 75.3643 9.8486 76.2111 15.6155Z" fill="url(#paint1_linear_318_1041)"/>
<path d="M80.6017 25.0598C81.0851 24.0541 81.4757 22.9967 81.7625 21.8984L79.2798 19.6635C79.3945 18.9141 79.4518 18.1455 79.4518 17.3606C79.4518 16.5757 79.3945 15.8017 79.2798 15.0522L81.7625 12.8147C81.3364 11.2067 80.6973 9.69142 79.8779 8.29603L76.543 8.46773C75.628 7.2195 74.5246 6.12118 73.2737 5.20819L73.443 1.87778C72.0446 1.05471 70.5205 0.419718 68.9091 0L66.6722 2.47464C65.9183 2.35745 65.1426 2.29748 64.3615 2.29748C63.5776 2.29748 62.8019 2.35745 62.0508 2.47464L59.8112 0C58.1997 0.425157 56.6811 1.05471 55.2772 1.87778L55.452 5.20819C54.2011 6.12118 53.0977 7.2195 52.18 8.46773L48.8478 8.29603C48.0229 9.69142 47.3838 11.2149 46.9632 12.8229L49.4405 15.0522C49.3258 15.8071 49.2684 16.5757 49.2684 17.3606C49.2684 18.1455 49.3258 18.9141 49.4405 19.6635L46.9632 21.8984C47.25 22.9967 47.6406 24.0541 48.124 25.0598C42.4238 25.7139 37.4092 26.7059 33.4434 27.9378C39.2883 27.3109 45.6822 26.8531 52.4531 26.6051C53.196 26.5778 53.9444 26.5533 54.6982 26.5315C55.3401 26.5124 55.9874 26.4961 56.6347 26.4797C59.1693 26.4197 61.7476 26.3898 64.3615 26.3898C66.9781 26.3898 69.5591 26.4197 72.0938 26.4797C72.7411 26.4961 73.3829 26.5124 74.0248 26.5315C74.7759 26.5533 75.5242 26.5778 76.2672 26.6051C83.038 26.8531 89.4347 27.3109 95.2796 27.9378C91.3165 26.7059 86.3019 25.7166 80.6017 25.0598ZM73.9838 24.4711C70.9002 24.2721 67.6773 24.1686 64.3615 24.1686C61.0539 24.1686 57.8392 24.2721 54.761 24.4711C54.223 24.5038 53.6904 24.542 53.1605 24.5801C51.8058 22.4979 51.0192 20.0178 51.0192 17.3579C51.0192 10.0157 57.0034 4.04446 64.3615 4.04446C71.7196 4.04446 77.7065 10.0157 77.7065 17.3579C77.7065 20.0178 76.9199 22.4979 75.5652 24.5801C75.0435 24.542 74.5164 24.5038 73.9838 24.4711Z" fill="#1A193B"/>
<path d="M9.1378 38.3257L15.647 47.6936H11.6414L6.13365 39.6998H3.50493V47.6936H0V30.207H3.50493V37.5762H7.00985L11.8918 30.207H14.5203L9.1378 38.3257Z" fill="#1A193B"/>
<path d="M22.1631 30.207V47.6936H18.6582V30.207H22.1631Z" fill="#1A193B"/>
<path d="M38.8081 47.6936L37.1808 43.6965H29.4199L27.7926 47.6936H25.2891L32.5492 30.207H35.5535L42.5634 47.6936H38.8081ZM33.3003 34.079L30.2961 41.5732H36.4297L33.4256 34.079H33.3003Z" fill="#1A193B"/>
<path d="M45.6875 30.207H52.5721C53.5399 30.207 54.4499 30.3154 55.301 30.5317C56.1523 30.7484 56.9322 31.0773 57.6418 31.5183C58.351 31.9599 58.9144 32.5595 59.3317 33.317C59.7487 34.075 59.9575 34.9533 59.9575 35.9524C59.9575 37.285 59.582 38.4007 58.831 39.3C58.0799 40.1993 57.1701 40.8237 56.1021 41.1734C55.0339 41.5232 53.8572 41.698 52.5721 41.698H49.1924V47.6936H45.6875V30.207ZM56.2023 35.9524C56.2023 34.8702 55.8643 33.9959 55.1883 33.3295C54.5124 32.6636 53.6401 32.3304 52.5721 32.3304H49.1924V39.5747H52.5721C53.6569 39.5747 54.5331 39.2375 55.2009 38.5631C55.8682 37.8886 56.2023 37.0186 56.2023 35.9524Z" fill="#1A193B"/>
<path d="M73.9995 47.6936L72.3722 43.6965H64.6113L62.984 47.6936H60.4805L67.7406 30.207H70.7449L77.7548 47.6936H73.9995ZM68.4917 34.079L65.4875 41.5732H71.6211L68.617 34.079H68.4917Z" fill="#1A193B"/>
<path d="M88.064 41.3236H84.3838V47.6936H80.8789V30.207H87.2629C88.5812 30.207 89.7789 30.3779 90.8554 30.7191C91.9319 31.0606 92.854 31.6682 93.6218 32.5428C94.3893 33.4171 94.7734 34.5123 94.7734 35.8276C94.7734 36.9268 94.4562 37.8721 93.8221 38.6629C93.1875 39.4541 92.3364 40.008 91.2684 40.3242V40.449L96.2756 47.6936H92.3951L88.064 41.3236ZM84.3838 39.325H87.2629C88.3309 39.325 89.2239 39.0046 89.9416 38.3632C90.6591 37.7223 91.0181 36.8767 91.0181 35.8276C91.0181 34.7619 90.6591 33.9126 89.9416 33.2795C89.2239 32.6468 88.3309 32.3304 87.2629 32.3304H84.3838V39.325Z" fill="#1A193B"/>
<path d="M103.035 47.6936V32.3304H97.2773V30.207H112.298L111.923 32.3304H106.54V47.6936H103.035Z" fill="#1A193B"/>
<path d="M114.83 34.4535C114.83 33.4211 115.188 32.5261 115.906 31.7681C116.624 31.0104 117.517 30.4565 118.585 30.1068C119.369 29.8406 120.287 29.707 121.339 29.707C124.059 29.707 126.271 30.8312 127.973 33.0797L126.847 34.0788C125.344 32.4968 123.675 31.7055 121.839 31.7055C120.955 31.7055 120.191 31.9472 119.549 32.43C118.906 32.9133 118.585 33.5878 118.585 34.4535C118.585 35.3028 119.419 36.0773 121.089 36.7768C121.723 37.0602 122.499 37.3681 123.417 37.7011C125.286 38.384 126.654 39.2916 127.522 40.4241C127.99 41.0402 128.223 41.8397 128.223 42.8221C128.223 43.9881 127.835 44.9997 127.059 45.8572C126.283 46.7153 125.303 47.3437 124.118 47.7434C123.233 48.0431 122.223 48.193 121.089 48.193C119.603 48.193 118.201 47.8515 116.883 47.1688C115.564 46.4861 114.504 45.5368 113.703 44.321L114.83 43.1968C115.514 44.1297 116.361 44.8624 117.371 45.3952C118.38 45.9283 119.453 46.1944 120.588 46.1944C121.723 46.1944 122.653 45.9073 123.379 45.3327C124.105 44.758 124.468 43.9213 124.468 42.8221C124.468 42.4391 124.309 42.0851 123.992 41.7604C123.675 41.4357 123.375 41.1983 123.091 41.0485C122.807 40.8986 122.432 40.7323 121.965 40.5489C121.33 40.2827 120.563 39.9743 119.662 39.6246C118.226 39.0585 117.062 38.3715 116.169 37.5635C115.276 36.756 114.83 35.7193 114.83 34.4535Z" fill="#1A193B"/>
<defs>
<linearGradient id="paint0_linear_318_1041" x1="69.7545" y1="26.2679" x2="64.9724" y2="19.0145" gradientUnits="userSpaceOnUse">
<stop stop-color="#2B80FF"/>
<stop offset="1" stop-color="#1831D3"/>
</linearGradient>
<linearGradient id="paint1_linear_318_1041" x1="64.9938" y1="17.5885" x2="62.0052" y2="11.4349" gradientUnits="userSpaceOnUse">
<stop stop-color="#FF7C5C"/>
<stop offset="1" stop-color="#E3041A"/>
</linearGradient>
</defs>
</svg>
